<svg width="497" height="254" viewBox="0 0 497 254" fill="none" xmlns="http://www.w3.org/2000/svg">
<path d="M38.4118 222.677C36.3578 234.488 23.8622 246.855 17.8712 251.562C47.1416 251.562 72.1684 240.672 75.3778 234.895C141.921 245.593 304.634 276.082 427.878 222.677C551.122 169.271 481.878 50.395 415.378 25.395C341.878 -2.23663 118.838 -17.6865 44.3779 42.3949C-30.0819 102.476 7.38689 195.289 38.4118 222.677Z" stroke="#19213D" stroke-width="1.28379"/>
<path d="M62.6379 71.895V57.795H68.2779C69.7713 57.795 70.9246 58.115 71.7379 58.755C72.5513 59.395 72.9579 60.3017 72.9579 61.475C72.9579 62.355 72.6913 63.0884 72.1579 63.675C71.6379 64.2617 70.9113 64.6484 69.9779 64.835V64.555C71.0179 64.675 71.8313 65.035 72.4179 65.635C73.0179 66.2217 73.3179 67.015 73.3179 68.015C73.3179 69.2684 72.8979 70.2284 72.0579 70.895C71.2313 71.5617 70.0579 71.895 68.5379 71.895H62.6379ZM64.2579 70.555H68.3779C69.3913 70.555 70.1913 70.3617 70.7779 69.975C71.3779 69.575 71.6779 68.915 71.6779 67.995C71.6779 67.0617 71.3779 66.4017 70.7779 66.015C70.1913 65.615 69.3913 65.415 68.3779 65.415H64.2579V70.555ZM64.2579 64.095H68.0379C69.1313 64.095 69.9513 63.8817 70.4979 63.455C71.0446 63.0284 71.3179 62.415 71.3179 61.615C71.3179 60.7884 71.0446 60.1684 70.4979 59.755C69.9513 59.3284 69.1313 59.115 68.0379 59.115H64.2579V64.095ZM80.3717 72.075C79.385 72.075 78.525 71.8617 77.7917 71.435C77.0717 71.0084 76.5117 70.4017 76.1117 69.615C75.725 68.8284 75.5317 67.895 75.5317 66.815C75.5317 65.7217 75.7317 64.795 76.1317 64.035C76.5317 63.2617 77.0917 62.675 77.8117 62.275C78.545 61.875 79.3983 61.675 80.3717 61.675C81.0117 61.675 81.6317 61.7884 82.2317 62.015C82.845 62.2417 83.3517 62.5617 83.7517 62.975L83.1717 64.135C82.7717 63.7484 82.3317 63.4617 81.8517 63.275C81.385 63.0884 80.925 62.995 80.4717 62.995C79.4317 62.995 78.625 63.3217 78.0517 63.975C77.4783 64.6284 77.1917 65.5817 77.1917 66.835C77.1917 68.075 77.4783 69.035 78.0517 69.715C78.625 70.395 79.4317 70.735 80.4717 70.735C80.9117 70.735 81.365 70.6484 81.8317 70.475C82.3117 70.3017 82.7583 70.015 83.1717 69.615L83.7517 70.755C83.3383 71.1817 82.825 71.5084 82.2117 71.735C81.5983 71.9617 80.985 72.075 80.3717 72.075ZM90.7093 72.075C89.136 72.075 87.896 71.6217 86.9893 70.715C86.0827 69.795 85.6293 68.5217 85.6293 66.895C85.6293 65.8417 85.8293 64.9284 86.2293 64.155C86.6293 63.3684 87.1893 62.7617 87.9093 62.335C88.6293 61.895 89.456 61.675 90.3893 61.675C91.3093 61.675 92.0827 61.8684 92.7093 62.255C93.336 62.6417 93.816 63.195 94.1493 63.915C94.4827 64.6217 94.6493 65.4617 94.6493 66.435V67.035H86.8693V66.015H93.5893L93.2493 66.275C93.2493 65.2084 93.0093 64.375 92.5293 63.775C92.0493 63.175 91.336 62.875 90.3893 62.875C89.3893 62.875 88.6093 63.2284 88.0493 63.935C87.4893 64.6284 87.2093 65.5684 87.2093 66.755V66.935C87.2093 68.1884 87.516 69.1417 88.1293 69.795C88.756 70.435 89.6293 70.755 90.7493 70.755C91.3493 70.755 91.9093 70.6684 92.4293 70.495C92.9627 70.3084 93.4693 70.0084 93.9493 69.595L94.5093 70.735C94.0693 71.1617 93.5093 71.495 92.8293 71.735C92.1627 71.9617 91.456 72.075 90.7093 72.075ZM97.2436 71.895V61.855H98.6036L102.364 68.595L106.144 61.855H107.504V71.895H106.064V63.655H106.484L102.784 70.275H101.964L98.2436 63.635H98.6836V71.895H97.2436ZM115.915 71.895V61.855H124.615V71.895H122.995V63.135H117.535V71.895H115.915ZM127.89 76.215V64.175C127.89 63.8017 127.87 63.4217 127.83 63.035C127.803 62.635 127.77 62.2417 127.73 61.855H129.29L129.51 64.235H129.27C129.483 63.4484 129.917 62.8284 130.57 62.375C131.223 61.9084 132.003 61.675 132.91 61.675C133.817 61.675 134.597 61.8817 135.25 62.295C135.917 62.7084 136.437 63.3017 136.81 64.075C137.183 64.8484 137.37 65.7817 137.37 66.875C137.37 67.955 137.183 68.8817 136.81 69.655C136.45 70.4284 135.937 71.0284 135.27 71.455C134.603 71.8684 133.817 72.075 132.91 72.075C132.017 72.075 131.243 71.8484 130.59 71.395C129.937 70.9417 129.503 70.3217 129.29 69.535H129.51V76.215H127.89ZM132.59 70.755C133.55 70.755 134.31 70.4284 134.87 69.775C135.443 69.1084 135.73 68.1417 135.73 66.875C135.73 65.595 135.443 64.6284 134.87 63.975C134.31 63.3084 133.55 62.975 132.59 62.975C131.643 62.975 130.883 63.3084 130.31 63.975C129.75 64.6284 129.47 65.595 129.47 66.875C129.47 68.1417 129.75 69.1084 130.31 69.775C130.883 70.4284 131.643 70.755 132.59 70.755ZM140.017 71.895V61.855H141.497V70.395H140.957L147.357 61.855H148.717V71.895H147.257V63.335H147.797L141.397 71.895H140.017ZM151.912 71.895V61.855H156.752C157.912 61.855 158.778 62.0817 159.352 62.535C159.938 62.975 160.232 63.6284 160.232 64.495C160.232 65.135 160.005 65.675 159.552 66.115C159.112 66.5417 158.538 66.795 157.832 66.875V66.635C158.658 66.6617 159.318 66.9017 159.812 67.355C160.305 67.8084 160.552 68.395 160.552 69.115C160.552 69.9817 160.232 70.6617 159.592 71.155C158.965 71.6484 158.072 71.895 156.912 71.895H151.912ZM153.452 70.795H156.832C157.538 70.795 158.078 70.6484 158.452 70.355C158.838 70.0484 159.032 69.615 159.032 69.055C159.032 68.495 158.838 68.0684 158.452 67.775C158.078 67.4817 157.538 67.335 156.832 67.335H153.452V70.795ZM153.452 66.235H156.652C157.305 66.235 157.812 66.0884 158.172 65.795C158.532 65.5017 158.712 65.095 158.712 64.575C158.712 64.055 158.532 63.655 158.172 63.375C157.812 63.0817 157.305 62.935 156.652 62.935H153.452V66.235ZM167.604 72.075C166.031 72.075 164.791 71.6217 163.884 70.715C162.977 69.795 162.524 68.5217 162.524 66.895C162.524 65.8417 162.724 64.9284 163.124 64.155C163.524 63.3684 164.084 62.7617 164.804 62.335C165.524 61.895 166.351 61.675 167.284 61.675C168.204 61.675 168.977 61.8684 169.604 62.255C170.231 62.6417 170.711 63.195 171.044 63.915C171.377 64.6217 171.544 65.4617 171.544 66.435V67.035H163.764V66.015H170.484L170.144 66.275C170.144 65.2084 169.904 64.375 169.424 63.775C168.944 63.175 168.231 62.875 167.284 62.875C166.284 62.875 165.504 63.2284 164.944 63.935C164.384 64.6284 164.104 65.5684 164.104 66.755V66.935C164.104 68.1884 164.411 69.1417 165.024 69.795C165.651 70.435 166.524 70.755 167.644 70.755C168.244 70.755 168.804 70.6684 169.324 70.495C169.857 70.3084 170.364 70.0084 170.844 69.595L171.404 70.735C170.964 71.1617 170.404 71.495 169.724 71.735C169.057 71.9617 168.351 72.075 167.604 72.075ZM176.278 71.895V63.155H172.638V61.855H181.558V63.155H177.898V71.895H176.278ZM182.333 74.175L181.573 73.595C181.933 73.2217 182.167 72.8684 182.273 72.535C182.393 72.215 182.453 71.8884 182.453 71.555L182.813 71.895H181.493V69.855H183.533V71.295C183.533 71.8284 183.447 72.3284 183.273 72.795C183.1 73.275 182.787 73.735 182.333 74.175ZM191.599 71.895V61.855H192.959L196.719 68.595L200.499 61.855H201.859V71.895H200.419V63.655H200.839L197.139 70.275H196.319L192.599 63.635H193.039V71.895H191.599ZM205.056 71.895V61.855H206.676V65.455H209.696C210.989 65.455 211.963 65.735 212.616 66.295C213.283 66.8417 213.616 67.6217 213.616 68.635C213.616 69.315 213.463 69.9017 213.156 70.395C212.863 70.875 212.423 71.2484 211.836 71.515C211.263 71.7684 210.549 71.895 209.696 71.895H205.056ZM206.676 70.735H209.556C210.369 70.735 210.989 70.5684 211.416 70.235C211.843 69.8884 212.056 69.3617 212.056 68.655C212.056 67.9484 211.843 67.435 211.416 67.115C211.003 66.7817 210.383 66.615 209.556 66.615H206.676V70.735ZM215.136 71.895V61.855H216.736V71.895H215.136ZM224.994 67.075V65.735H230.694V67.075H224.994ZM238.443 72.195L237.663 70.895C238.223 70.6017 238.723 70.255 239.163 69.855C239.603 69.4417 239.97 68.9084 240.263 68.255C240.57 67.6017 240.797 66.775 240.943 65.775C241.103 64.7617 241.183 63.515 241.183 62.035V57.795H250.803V71.895H249.163V59.195H242.723V62.455C242.723 63.9084 242.63 65.175 242.443 66.255C242.257 67.3217 241.977 68.2417 241.603 69.015C241.243 69.775 240.797 70.415 240.263 70.935C239.743 71.4417 239.137 71.8617 238.443 72.195ZM258.358 72.075C257.398 72.075 256.558 71.8684 255.838 71.455C255.131 71.0284 254.584 70.4284 254.198 69.655C253.811 68.8684 253.618 67.9417 253.618 66.875C253.618 65.795 253.811 64.8684 254.198 64.095C254.584 63.3217 255.131 62.7284 255.838 62.315C256.558 61.8884 257.398 61.675 258.358 61.675C259.331 61.675 260.171 61.8884 260.878 62.315C261.598 62.7284 262.151 63.3217 262.538 64.095C262.938 64.8684 263.138 65.795 263.138 66.875C263.138 67.9417 262.938 68.8684 262.538 69.655C262.151 70.4284 261.598 71.0284 260.878 71.455C260.171 71.8684 259.331 72.075 258.358 72.075ZM258.358 70.755C259.318 70.755 260.078 70.4284 260.638 69.775C261.198 69.1084 261.478 68.1417 261.478 66.875C261.478 65.595 261.191 64.6284 260.618 63.975C260.058 63.3084 259.304 62.975 258.358 62.975C257.411 62.975 256.658 63.3084 256.098 63.975C255.538 64.6284 255.258 65.595 255.258 66.875C255.258 68.1417 255.538 69.1084 256.098 69.775C256.658 70.4284 257.411 70.755 258.358 70.755ZM265.779 71.895V61.855H274.479V71.895H272.859V63.135H267.399V71.895H265.779ZM281.573 72.075C280.68 72.075 279.9 71.8684 279.233 71.455C278.567 71.0284 278.047 70.4284 277.673 69.655C277.313 68.8817 277.133 67.955 277.133 66.875C277.133 65.7817 277.313 64.8484 277.673 64.075C278.047 63.3017 278.567 62.7084 279.233 62.295C279.9 61.8817 280.68 61.675 281.573 61.675C282.48 61.675 283.26 61.9084 283.913 62.375C284.58 62.8284 285.02 63.4484 285.233 64.235H284.993L285.213 61.855H286.773C286.733 62.2417 286.693 62.635 286.653 63.035C286.627 63.4217 286.613 63.8017 286.613 64.175V71.895H284.993V69.535H285.213C285 70.3217 284.56 70.9417 283.893 71.395C283.227 71.8484 282.453 72.075 281.573 72.075ZM281.893 70.755C282.853 70.755 283.613 70.4284 284.173 69.775C284.733 69.1084 285.013 68.1417 285.013 66.875C285.013 65.595 284.733 64.6284 284.173 63.975C283.613 63.3084 282.853 62.975 281.893 62.975C280.947 62.975 280.187 63.3084 279.613 63.975C279.053 64.6284 278.773 65.595 278.773 66.875C278.773 68.1417 279.053 69.1084 279.613 69.775C280.187 70.4284 280.947 70.755 281.893 70.755ZM292.02 71.895V63.155H288.38V61.855H297.3V63.155H293.64V71.895H292.02ZM302.882 72.075C301.989 72.075 301.209 71.8684 300.542 71.455C299.875 71.0284 299.355 70.4284 298.982 69.655C298.622 68.8817 298.442 67.955 298.442 66.875C298.442 65.7817 298.622 64.8484 298.982 64.075C299.355 63.3017 299.875 62.7084 300.542 62.295C301.209 61.8817 301.989 61.675 302.882 61.675C303.789 61.675 304.569 61.9084 305.222 62.375C305.889 62.8284 306.329 63.4484 306.542 64.235H306.302L306.522 61.855H308.082C308.042 62.2417 308.002 62.635 307.962 63.035C307.935 63.4217 307.922 63.8017 307.922 64.175V71.895H306.302V69.535H306.522C306.309 70.3217 305.869 70.9417 305.202 71.395C304.535 71.8484 303.762 72.075 302.882 72.075ZM303.202 70.755C304.162 70.755 304.922 70.4284 305.482 69.775C306.042 69.1084 306.322 68.1417 306.322 66.875C306.322 65.595 306.042 64.6284 305.482 63.975C304.922 63.3084 304.162 62.975 303.202 62.975C302.255 62.975 301.495 63.3084 300.922 63.975C300.362 64.6284 300.082 65.595 300.082 66.875C300.082 68.1417 300.362 69.1084 300.922 69.775C301.495 70.4284 302.255 70.755 303.202 70.755ZM311.369 68.215L310.869 57.795H312.869L312.369 68.215H311.369ZM310.849 71.895V69.855H312.889V71.895H310.849ZM61.9979 97.195L61.2179 95.895C61.7779 95.6017 62.2779 95.255 62.7179 94.855C63.1579 94.4417 63.5246 93.9084 63.8179 93.255C64.1246 92.6017 64.3513 91.775 64.4979 90.775C64.6579 89.7617 64.7379 88.515 64.7379 87.035V82.795H74.3579V96.895H72.7179V84.195H66.2779V87.455C66.2779 88.9084 66.1846 90.175 65.9979 91.255C65.8113 92.3217 65.5313 93.2417 65.1579 94.015C64.7979 94.775 64.3513 95.415 63.8179 95.935C63.2979 96.4417 62.6913 96.8617 61.9979 97.195ZM81.9123 97.075C80.9523 97.075 80.1123 96.8684 79.3923 96.455C78.6856 96.0284 78.139 95.4284 77.7523 94.655C77.3656 93.8684 77.1723 92.9417 77.1723 91.875C77.1723 90.795 77.3656 89.8684 77.7523 89.095C78.139 88.3217 78.6856 87.7284 79.3923 87.315C80.1123 86.8884 80.9523 86.675 81.9123 86.675C82.8856 86.675 83.7256 86.8884 84.4323 87.315C85.1523 87.7284 85.7056 88.3217 86.0923 89.095C86.4923 89.8684 86.6923 90.795 86.6923 91.875C86.6923 92.9417 86.4923 93.8684 86.0923 94.655C85.7056 95.4284 85.1523 96.0284 84.4323 96.455C83.7256 96.8684 82.8856 97.075 81.9123 97.075ZM81.9123 95.755C82.8723 95.755 83.6323 95.4284 84.1923 94.775C84.7523 94.1084 85.0323 93.1417 85.0323 91.875C85.0323 90.595 84.7456 89.6284 84.1723 88.975C83.6123 88.3084 82.859 87.975 81.9123 87.975C80.9656 87.975 80.2123 88.3084 79.6523 88.975C79.0923 89.6284 78.8123 90.595 78.8123 91.875C78.8123 93.1417 79.0923 94.1084 79.6523 94.775C80.2123 95.4284 80.9656 95.755 81.9123 95.755ZM89.3334 96.895V86.855H98.0334V96.895H96.4134V88.135H90.9534V96.895H89.3334ZM105.128 97.075C104.235 97.075 103.455 96.8684 102.788 96.455C102.121 96.0284 101.601 95.4284 101.228 94.655C100.868 93.8817 100.688 92.955 100.688 91.875C100.688 90.7817 100.868 89.8484 101.228 89.075C101.601 88.3017 102.121 87.7084 102.788 87.295C103.455 86.8817 104.235 86.675 105.128 86.675C106.035 86.675 106.815 86.9084 107.468 87.375C108.135 87.8284 108.575 88.4484 108.788 89.235H108.548L108.768 86.855H110.328C110.288 87.2417 110.248 87.635 110.208 88.035C110.181 88.4217 110.168 88.8017 110.168 89.175V96.895H108.548V94.535H108.768C108.555 95.3217 108.115 95.9417 107.448 96.395C106.781 96.8484 106.008 97.075 105.128 97.075ZM105.448 95.755C106.408 95.755 107.168 95.4284 107.728 94.775C108.288 94.1084 108.568 93.1417 108.568 91.875C108.568 90.595 108.288 89.6284 107.728 88.975C107.168 88.3084 106.408 87.975 105.448 87.975C104.501 87.975 103.741 88.3084 103.168 88.975C102.608 89.6284 102.328 90.595 102.328 91.875C102.328 93.1417 102.608 94.1084 103.168 94.775C103.741 95.4284 104.501 95.755 105.448 95.755ZM115.575 96.895V88.155H111.935V86.855H120.855V88.155H117.195V96.895H115.575ZM126.437 97.075C125.543 97.075 124.763 96.8684 124.097 96.455C123.43 96.0284 122.91 95.4284 122.537 94.655C122.177 93.8817 121.997 92.955 121.997 91.875C121.997 90.7817 122.177 89.8484 122.537 89.075C122.91 88.3017 123.43 87.7084 124.097 87.295C124.763 86.8817 125.543 86.675 126.437 86.675C127.343 86.675 128.123 86.9084 128.777 87.375C129.443 87.8284 129.883 88.4484 130.097 89.235H129.857L130.077 86.855H131.637C131.597 87.2417 131.557 87.635 131.517 88.035C131.49 88.4217 131.477 88.8017 131.477 89.175V96.895H129.857V94.535H130.077C129.863 95.3217 129.423 95.9417 128.757 96.395C128.09 96.8484 127.317 97.075 126.437 97.075ZM126.757 95.755C127.717 95.755 128.477 95.4284 129.037 94.775C129.597 94.1084 129.877 93.1417 129.877 91.875C129.877 90.595 129.597 89.6284 129.037 88.975C128.477 88.3084 127.717 87.975 126.757 87.975C125.81 87.975 125.05 88.3084 124.477 88.975C123.917 89.6284 123.637 90.595 123.637 91.875C123.637 93.1417 123.917 94.1084 124.477 94.775C125.05 95.4284 125.81 95.755 126.757 95.755ZM139.798 92.075V90.735H145.498V92.075H139.798ZM156.588 97.075C155.868 97.075 155.175 96.955 154.508 96.715C153.841 96.475 153.321 96.1484 152.948 95.735L153.508 94.655C153.908 95.0417 154.368 95.335 154.888 95.535C155.408 95.7217 155.948 95.815 156.508 95.815C157.561 95.815 158.388 95.4884 158.988 94.835C159.588 94.1817 159.901 93.2484 159.928 92.035L160.148 92.375H154.808V91.175H160.168L159.928 91.515C159.901 90.8084 159.761 90.1884 159.508 89.655C159.255 89.1084 158.875 88.6817 158.368 88.375C157.875 88.0684 157.255 87.915 156.508 87.915C155.988 87.915 155.455 88.0084 154.908 88.195C154.375 88.3817 153.908 88.6817 153.508 89.095L152.948 87.975C153.361 87.575 153.901 87.2617 154.568 87.035C155.235 86.795 155.915 86.675 156.608 86.675C157.608 86.675 158.468 86.8817 159.188 87.295C159.921 87.695 160.488 88.2817 160.888 89.055C161.288 89.8284 161.488 90.755 161.488 91.835C161.488 92.9284 161.281 93.8684 160.868 94.655C160.468 95.4284 159.901 96.0284 159.168 96.455C158.435 96.8684 157.575 97.075 156.588 97.075ZM166.259 96.895V88.155H162.619V86.855H171.539V88.155H167.879V96.895H166.259ZM177.381 97.075C176.421 97.075 175.581 96.8684 174.861 96.455C174.154 96.0284 173.608 95.4284 173.221 94.655C172.834 93.8684 172.641 92.9417 172.641 91.875C172.641 90.795 172.834 89.8684 173.221 89.095C173.608 88.3217 174.154 87.7284 174.861 87.315C175.581 86.8884 176.421 86.675 177.381 86.675C178.354 86.675 179.194 86.8884 179.901 87.315C180.621 87.7284 181.174 88.3217 181.561 89.095C181.961 89.8684 182.161 90.795 182.161 91.875C182.161 92.9417 181.961 93.8684 181.561 94.655C181.174 95.4284 180.621 96.0284 179.901 96.455C179.194 96.8684 178.354 97.075 177.381 97.075ZM177.381 95.755C178.341 95.755 179.101 95.4284 179.661 94.775C180.221 94.1084 180.501 93.1417 180.501 91.875C180.501 90.595 180.214 89.6284 179.641 88.975C179.081 88.3084 178.328 87.975 177.381 87.975C176.434 87.975 175.681 88.3084 175.121 88.975C174.561 89.6284 174.281 90.595 174.281 91.875C174.281 93.1417 174.561 94.1084 175.121 94.775C175.681 95.4284 176.434 95.755 177.381 95.755ZM194.317 97.075C193.33 97.075 192.47 96.8617 191.737 96.435C191.017 96.0084 190.457 95.4017 190.057 94.615C189.67 93.8284 189.477 92.895 189.477 91.815C189.477 90.7217 189.677 89.795 190.077 89.035C190.477 88.2617 191.037 87.675 191.757 87.275C192.49 86.875 193.344 86.675 194.317 86.675C194.957 86.675 195.577 86.7884 196.177 87.015C196.79 87.2417 197.297 87.5617 197.697 87.975L197.117 89.135C196.717 88.7484 196.277 88.4617 195.797 88.275C195.33 88.0884 194.87 87.995 194.417 87.995C193.377 87.995 192.57 88.3217 191.997 88.975C191.424 89.6284 191.137 90.5817 191.137 91.835C191.137 93.075 191.424 94.035 191.997 94.715C192.57 95.395 193.377 95.735 194.417 95.735C194.857 95.735 195.31 95.6484 195.777 95.475C196.257 95.3017 196.704 95.015 197.117 94.615L197.697 95.755C197.284 96.1817 196.77 96.5084 196.157 96.735C195.544 96.9617 194.93 97.075 194.317 97.075ZM204.315 97.075C203.355 97.075 202.515 96.8684 201.795 96.455C201.088 96.0284 200.541 95.4284 200.155 94.655C199.768 93.8684 199.575 92.9417 199.575 91.875C199.575 90.795 199.768 89.8684 200.155 89.095C200.541 88.3217 201.088 87.7284 201.795 87.315C202.515 86.8884 203.355 86.675 204.315 86.675C205.288 86.675 206.128 86.8884 206.835 87.315C207.555 87.7284 208.108 88.3217 208.495 89.095C208.895 89.8684 209.095 90.795 209.095 91.875C209.095 92.9417 208.895 93.8684 208.495 94.655C208.108 95.4284 207.555 96.0284 206.835 96.455C206.128 96.8684 205.288 97.075 204.315 97.075ZM204.315 95.755C205.275 95.755 206.035 95.4284 206.595 94.775C207.155 94.1084 207.435 93.1417 207.435 91.875C207.435 90.595 207.148 89.6284 206.575 88.975C206.015 88.3084 205.261 87.975 204.315 87.975C203.368 87.975 202.615 88.3084 202.055 88.975C201.495 89.6284 201.215 90.595 201.215 91.875C201.215 93.1417 201.495 94.1084 202.055 94.775C202.615 95.4284 203.368 95.755 204.315 95.755ZM215.936 97.075C214.976 97.075 214.136 96.8684 213.416 96.455C212.709 96.0284 212.162 95.4284 211.776 94.655C211.389 93.8684 211.196 92.9417 211.196 91.875C211.196 90.795 211.389 89.8684 211.776 89.095C212.162 88.3217 212.709 87.7284 213.416 87.315C214.136 86.8884 214.976 86.675 215.936 86.675C216.909 86.675 217.749 86.8884 218.456 87.315C219.176 87.7284 219.729 88.3217 220.116 89.095C220.516 89.8684 220.716 90.795 220.716 91.875C220.716 92.9417 220.516 93.8684 220.116 94.655C219.729 95.4284 219.176 96.0284 218.456 96.455C217.749 96.8684 216.909 97.075 215.936 97.075ZM215.936 95.755C216.896 95.755 217.656 95.4284 218.216 94.775C218.776 94.1084 219.056 93.1417 219.056 91.875C219.056 90.595 218.769 89.6284 218.196 88.975C217.636 88.3084 216.882 87.975 215.936 87.975C214.989 87.975 214.236 88.3084 213.676 88.975C213.116 89.6284 212.836 90.595 212.836 91.875C212.836 93.1417 213.116 94.1084 213.676 94.775C214.236 95.4284 214.989 95.755 215.936 95.755ZM227.617 97.075C226.15 97.075 224.984 96.6017 224.117 95.655C223.25 94.7084 222.817 93.3284 222.817 91.515V89.755C222.817 87.9017 223.197 86.4017 223.957 85.255C224.717 84.1084 225.917 83.335 227.557 82.935L231.217 82.015L231.717 83.335L227.657 84.335C226.91 84.5217 226.297 84.8484 225.817 85.315C225.337 85.7684 224.97 86.315 224.717 86.955C224.477 87.5817 224.357 88.2484 224.357 88.955V89.755H224.117C224.277 89.155 224.537 88.6417 224.897 88.215C225.257 87.775 225.697 87.4417 226.217 87.215C226.75 86.975 227.337 86.855 227.977 86.855C228.844 86.855 229.604 87.0617 230.257 87.475C230.91 87.875 231.417 88.455 231.777 89.215C232.15 89.9617 232.337 90.8617 232.337 91.915C232.337 92.9684 232.144 93.8817 231.757 94.655C231.37 95.4284 230.824 96.0284 230.117 96.455C229.41 96.8684 228.577 97.075 227.617 97.075ZM227.577 95.775C228.55 95.775 229.317 95.455 229.877 94.815C230.437 94.1617 230.717 93.2084 230.717 91.955C230.717 90.715 230.43 89.775 229.857 89.135C229.297 88.4817 228.537 88.155 227.577 88.155C226.617 88.155 225.85 88.475 225.277 89.115C224.717 89.755 224.437 90.6617 224.437 91.835C224.437 93.1417 224.717 94.1284 225.277 94.795C225.837 95.4484 226.604 95.775 227.577 95.775ZM248.337 99.495V96.895H234.997V86.855H236.537V95.615H240.797V86.855H242.317V95.615H246.577V86.855H248.137V95.615H249.717V99.495H248.337ZM256.393 97.075C254.82 97.075 253.58 96.6217 252.673 95.715C251.766 94.795 251.313 93.5217 251.313 91.895C251.313 90.8417 251.513 89.9284 251.913 89.155C252.313 88.3684 252.873 87.7617 253.593 87.335C254.313 86.895 255.14 86.675 256.073 86.675C256.993 86.675 257.766 86.8684 258.393 87.255C259.02 87.6417 259.5 88.195 259.833 88.915C260.166 89.6217 260.333 90.4617 260.333 91.435V92.035H252.553V91.015H259.273L258.933 91.275C258.933 90.2084 258.693 89.375 258.213 88.775C257.733 88.175 257.02 87.875 256.073 87.875C255.073 87.875 254.293 88.2284 253.733 88.935C253.173 89.6284 252.893 90.5684 252.893 91.755V91.935C252.893 93.1884 253.2 94.1417 253.813 94.795C254.44 95.435 255.313 95.755 256.433 95.755C257.033 95.755 257.593 95.6684 258.113 95.495C258.646 95.3084 259.153 95.0084 259.633 94.595L260.193 95.735C259.753 96.1617 259.193 96.495 258.513 96.735C257.846 96.9617 257.14 97.075 256.393 97.075ZM267.227 97.075C266.24 97.075 265.38 96.8617 264.647 96.435C263.927 96.0084 263.367 95.4017 262.967 94.615C262.58 93.8284 262.387 92.895 262.387 91.815C262.387 90.7217 262.587 89.795 262.987 89.035C263.387 88.2617 263.947 87.675 264.667 87.275C265.4 86.875 266.254 86.675 267.227 86.675C267.867 86.675 268.487 86.7884 269.087 87.015C269.7 87.2417 270.207 87.5617 270.607 87.975L270.027 89.135C269.627 88.7484 269.187 88.4617 268.707 88.275C268.24 88.0884 267.78 87.995 267.327 87.995C266.287 87.995 265.48 88.3217 264.907 88.975C264.334 89.6284 264.047 90.5817 264.047 91.835C264.047 93.075 264.334 94.035 264.907 94.715C265.48 95.395 266.287 95.735 267.327 95.735C267.767 95.735 268.22 95.6484 268.687 95.475C269.167 95.3017 269.614 95.015 270.027 94.615L270.607 95.755C270.194 96.1817 269.68 96.5084 269.067 96.735C268.454 96.9617 267.84 97.075 267.227 97.075ZM275.165 96.895V88.155H271.525V86.855H280.445V88.155H276.785V96.895H275.165ZM282.126 96.895V86.855H286.966C288.126 86.855 288.993 87.0817 289.566 87.535C290.153 87.975 290.446 88.6284 290.446 89.495C290.446 90.135 290.22 90.675 289.766 91.115C289.326 91.5417 288.753 91.795 288.046 91.875V91.635C288.873 91.6617 289.533 91.9017 290.026 92.355C290.52 92.8084 290.766 93.395 290.766 94.115C290.766 94.9817 290.446 95.6617 289.806 96.155C289.18 96.6484 288.286 96.895 287.126 96.895H282.126ZM283.666 95.795H287.046C287.753 95.795 288.293 95.6484 288.666 95.355C289.053 95.0484 289.246 94.615 289.246 94.055C289.246 93.495 289.053 93.0684 288.666 92.775C288.293 92.4817 287.753 92.335 287.046 92.335H283.666V95.795ZM283.666 91.235H286.866C287.52 91.235 288.026 91.0884 288.386 90.795C288.746 90.5017 288.926 90.095 288.926 89.575C288.926 89.055 288.746 88.655 288.386 88.375C288.026 88.0817 287.52 87.935 286.866 87.935H283.666V91.235ZM297.479 97.075C296.519 97.075 295.679 96.8684 294.959 96.455C294.252 96.0284 293.705 95.4284 293.319 94.655C292.932 93.8684 292.739 92.9417 292.739 91.875C292.739 90.795 292.932 89.8684 293.319 89.095C293.705 88.3217 294.252 87.7284 294.959 87.315C295.679 86.8884 296.519 86.675 297.479 86.675C298.452 86.675 299.292 86.8884 299.999 87.315C300.719 87.7284 301.272 88.3217 301.659 89.095C302.059 89.8684 302.259 90.795 302.259 91.875C302.259 92.9417 302.059 93.8684 301.659 94.655C301.272 95.4284 300.719 96.0284 299.999 96.455C299.292 96.8684 298.452 97.075 297.479 97.075ZM297.479 95.755C298.439 95.755 299.199 95.4284 299.759 94.775C300.319 94.1084 300.599 93.1417 300.599 91.875C300.599 90.595 300.312 89.6284 299.739 88.975C299.179 88.3084 298.425 87.975 297.479 87.975C296.532 87.975 295.779 88.3084 295.219 88.975C294.659 89.6284 294.379 90.595 294.379 91.875C294.379 93.1417 294.659 94.1084 295.219 94.775C295.779 95.4284 296.532 95.755 297.479 95.755ZM309.575 97.115L308.975 95.855C309.441 95.6417 309.828 95.3817 310.135 95.075C310.455 94.755 310.708 94.355 310.895 93.875C311.081 93.3817 311.215 92.775 311.295 92.055C311.375 91.3217 311.415 90.4417 311.415 89.415V86.855H318.655V96.895H317.055V88.135H312.915V89.475C312.915 91.0484 312.801 92.3417 312.575 93.355C312.361 94.3684 312.008 95.175 311.515 95.775C311.035 96.3617 310.388 96.8084 309.575 97.115ZM330.193 97.075C328.82 97.075 327.713 96.655 326.873 95.815C326.033 94.975 325.56 93.8217 325.453 92.355H323.433V96.895H321.853V86.855H323.433V91.055H325.473C325.633 89.6817 326.126 88.6084 326.953 87.835C327.793 87.0617 328.873 86.675 330.193 86.675C331.153 86.675 331.986 86.8817 332.693 87.295C333.413 87.7084 333.966 88.3084 334.353 89.095C334.753 89.8684 334.953 90.795 334.953 91.875C334.953 92.9417 334.753 93.8684 334.353 94.655C333.966 95.4284 333.413 96.0284 332.693 96.455C331.986 96.8684 331.153 97.075 330.193 97.075ZM330.193 95.775C331.14 95.775 331.9 95.4484 332.473 94.795C333.046 94.1284 333.333 93.155 333.333 91.875C333.333 90.595 333.046 89.6284 332.473 88.975C331.9 88.3084 331.14 87.975 330.193 87.975C329.233 87.975 328.466 88.3084 327.893 88.975C327.333 89.6284 327.053 90.595 327.053 91.875C327.053 93.155 327.333 94.1284 327.893 94.795C328.466 95.4484 329.233 95.775 330.193 95.775ZM336.535 99.495V95.615H337.595C338.075 94.935 338.422 94.1217 338.635 93.175C338.848 92.2284 338.955 91.1084 338.955 89.815V86.855H346.015V95.615H347.595V99.495H346.195V96.895H337.915V99.495H336.535ZM339.155 95.635H344.475V88.115H340.375V90.075C340.375 91.1284 340.268 92.1484 340.055 93.135C339.855 94.1084 339.555 94.9417 339.155 95.635ZM354.303 97.075C352.73 97.075 351.49 96.6217 350.583 95.715C349.676 94.795 349.223 93.5217 349.223 91.895C349.223 90.8417 349.423 89.9284 349.823 89.155C350.223 88.3684 350.783 87.7617 351.503 87.335C352.223 86.895 353.05 86.675 353.983 86.675C354.903 86.675 355.676 86.8684 356.303 87.255C356.93 87.6417 357.41 88.195 357.743 88.915C358.076 89.6217 358.243 90.4617 358.243 91.435V92.035H350.463V91.015H357.183L356.843 91.275C356.843 90.2084 356.603 89.375 356.123 88.775C355.643 88.175 354.93 87.875 353.983 87.875C352.983 87.875 352.203 88.2284 351.643 88.935C351.083 89.6284 350.803 90.5684 350.803 91.755V91.935C350.803 93.1884 351.11 94.1417 351.723 94.795C352.35 95.435 353.223 95.755 354.343 95.755C354.943 95.755 355.503 95.6684 356.023 95.495C356.556 95.3084 357.063 95.0084 357.543 94.595L358.103 95.735C357.663 96.1617 357.103 96.495 356.423 96.735C355.756 96.9617 355.05 97.075 354.303 97.075ZM360.837 96.895V86.855H362.317V95.395H361.777L368.177 86.855H369.537V96.895H368.077V88.335H368.617L362.217 96.895H360.837ZM365.177 85.915C364.631 85.915 364.124 85.8217 363.657 85.635C363.191 85.4484 362.784 85.1684 362.437 84.795C362.091 84.4084 361.831 83.935 361.657 83.375L362.617 83.015C362.857 83.655 363.184 84.1284 363.597 84.435C364.024 84.7417 364.557 84.895 365.197 84.895C365.837 84.895 366.364 84.755 366.777 84.475C367.191 84.195 367.551 83.715 367.857 83.035L368.777 83.375C368.431 84.2817 367.944 84.935 367.317 85.335C366.704 85.7217 365.991 85.915 365.177 85.915ZM373.232 99.175L372.472 98.595C372.832 98.2217 373.065 97.8684 373.172 97.535C373.292 97.215 373.352 96.8884 373.352 96.555L373.712 96.895H372.392V94.855H374.432V96.295C374.432 96.8284 374.345 97.3284 374.172 97.795C373.999 98.275 373.685 98.735 373.232 99.175ZM62.4779 121.895V111.855H64.0979V116.075H65.9979L69.3179 111.855H71.0979L67.2979 116.715L66.8579 116.215C67.2446 116.255 67.5779 116.348 67.8579 116.495C68.1379 116.642 68.4046 116.862 68.6579 117.155C68.9246 117.448 69.2113 117.855 69.5179 118.375L71.5979 121.895H69.8579L68.0179 118.775C67.7913 118.388 67.5713 118.095 67.3579 117.895C67.1579 117.695 66.9246 117.555 66.6579 117.475C66.4046 117.395 66.0846 117.355 65.6979 117.355H64.0979V121.895H62.4779ZM77.4396 122.075C76.4796 122.075 75.6396 121.868 74.9196 121.455C74.213 121.028 73.6663 120.428 73.2796 119.655C72.893 118.868 72.6996 117.942 72.6996 116.875C72.6996 115.795 72.893 114.868 73.2796 114.095C73.6663 113.322 74.213 112.728 74.9196 112.315C75.6396 111.888 76.4796 111.675 77.4396 111.675C78.413 111.675 79.253 111.888 79.9596 112.315C80.6796 112.728 81.233 113.322 81.6196 114.095C82.0196 114.868 82.2196 115.795 82.2196 116.875C82.2196 117.942 82.0196 118.868 81.6196 119.655C81.233 120.428 80.6796 121.028 79.9596 121.455C79.253 121.868 78.413 122.075 77.4396 122.075ZM77.4396 120.755C78.3996 120.755 79.1596 120.428 79.7196 119.775C80.2796 119.108 80.5596 118.142 80.5596 116.875C80.5596 115.595 80.273 114.628 79.6996 113.975C79.1396 113.308 78.3863 112.975 77.4396 112.975C76.493 112.975 75.7396 113.308 75.1796 113.975C74.6196 114.628 74.3396 115.595 74.3396 116.875C74.3396 118.142 74.6196 119.108 75.1796 119.775C75.7396 120.428 76.493 120.755 77.4396 120.755ZM87.0007 121.895V113.155H83.3607V111.855H92.2807V113.155H88.6207V121.895H87.0007ZM98.1232 122.075C97.1632 122.075 96.3232 121.868 95.6032 121.455C94.8966 121.028 94.3499 120.428 93.9632 119.655C93.5766 118.868 93.3832 117.942 93.3832 116.875C93.3832 115.795 93.5766 114.868 93.9632 114.095C94.3499 113.322 94.8966 112.728 95.6032 112.315C96.3232 111.888 97.1632 111.675 98.1232 111.675C99.0966 111.675 99.9366 111.888 100.643 112.315C101.363 112.728 101.917 113.322 102.303 114.095C102.703 114.868 102.903 115.795 102.903 116.875C102.903 117.942 102.703 118.868 102.303 119.655C101.917 120.428 101.363 121.028 100.643 121.455C99.9366 121.868 99.0966 122.075 98.1232 122.075ZM98.1232 120.755C99.0832 120.755 99.8432 120.428 100.403 119.775C100.963 119.108 101.243 118.142 101.243 116.875C101.243 115.595 100.957 114.628 100.383 113.975C99.8232 113.308 99.0699 112.975 98.1232 112.975C97.1766 112.975 96.4232 113.308 95.8632 113.975C95.3032 114.628 95.0232 115.595 95.0232 116.875C95.0232 118.142 95.3032 119.108 95.8632 119.775C96.4232 120.428 97.1766 120.755 98.1232 120.755ZM105.624 126.215V114.175C105.624 113.802 105.604 113.422 105.564 113.035C105.538 112.635 105.504 112.242 105.464 111.855H107.024L107.244 114.235H107.004C107.218 113.448 107.651 112.828 108.304 112.375C108.958 111.908 109.738 111.675 110.644 111.675C111.551 111.675 112.331 111.882 112.984 112.295C113.651 112.708 114.171 113.302 114.544 114.075C114.918 114.848 115.104 115.782 115.104 116.875C115.104 117.955 114.918 118.882 114.544 119.655C114.184 120.428 113.671 121.028 113.004 121.455C112.338 121.868 111.551 122.075 110.644 122.075C109.751 122.075 108.978 121.848 108.324 121.395C107.671 120.942 107.238 120.322 107.024 119.535H107.244V126.215H105.624ZM110.324 120.755C111.284 120.755 112.044 120.428 112.604 119.775C113.178 119.108 113.464 118.142 113.464 116.875C113.464 115.595 113.178 114.628 112.604 113.975C112.044 113.308 111.284 112.975 110.324 112.975C109.378 112.975 108.618 113.308 108.044 113.975C107.484 114.628 107.204 115.595 107.204 116.875C107.204 118.142 107.484 119.108 108.044 119.775C108.618 120.428 109.378 120.755 110.324 120.755ZM117.751 121.895V111.855H119.371V115.455H122.391C123.685 115.455 124.658 115.735 125.311 116.295C125.978 116.842 126.311 117.622 126.311 118.635C126.311 119.315 126.158 119.902 125.851 120.395C125.558 120.875 125.118 121.248 124.531 121.515C123.958 121.768 123.245 121.895 122.391 121.895H117.751ZM119.371 120.735H122.251C123.065 120.735 123.685 120.568 124.111 120.235C124.538 119.888 124.751 119.362 124.751 118.655C124.751 117.948 124.538 117.435 124.111 117.115C123.698 116.782 123.078 116.615 122.251 116.615H119.371V120.735ZM127.831 121.895V111.855H129.431V121.895H127.831ZM132.634 121.895V111.855H133.994L137.754 118.595L141.534 111.855H142.894V121.895H141.454V113.655H141.874L138.174 120.275H137.354L133.634 113.635H134.074V121.895H132.634ZM155.566 122.075C154.099 122.075 152.933 121.602 152.066 120.655C151.199 119.708 150.766 118.328 150.766 116.515V114.755C150.766 112.902 151.146 111.402 151.906 110.255C152.666 109.108 153.866 108.335 155.506 107.935L159.166 107.015L159.666 108.335L155.606 109.335C154.859 109.522 154.246 109.848 153.766 110.315C153.286 110.768 152.919 111.315 152.666 111.955C152.426 112.582 152.306 113.248 152.306 113.955V114.755H152.066C152.226 114.155 152.486 113.642 152.846 113.215C153.206 112.775 153.646 112.442 154.166 112.215C154.699 111.975 155.286 111.855 155.926 111.855C156.793 111.855 157.553 112.062 158.206 112.475C158.859 112.875 159.366 113.455 159.726 114.215C160.099 114.962 160.286 115.862 160.286 116.915C160.286 117.968 160.093 118.882 159.706 119.655C159.319 120.428 158.773 121.028 158.066 121.455C157.359 121.868 156.526 122.075 155.566 122.075ZM155.526 120.775C156.499 120.775 157.266 120.455 157.826 119.815C158.386 119.162 158.666 118.208 158.666 116.955C158.666 115.715 158.379 114.775 157.806 114.135C157.246 113.482 156.486 113.155 155.526 113.155C154.566 113.155 153.799 113.475 153.226 114.115C152.666 114.755 152.386 115.662 152.386 116.835C152.386 118.142 152.666 119.128 153.226 119.795C153.786 120.448 154.553 120.775 155.526 120.775ZM167.487 122.075C165.913 122.075 164.673 121.622 163.767 120.715C162.86 119.795 162.407 118.522 162.407 116.895C162.407 115.842 162.607 114.928 163.007 114.155C163.407 113.368 163.967 112.762 164.687 112.335C165.407 111.895 166.233 111.675 167.167 111.675C168.087 111.675 168.86 111.868 169.487 112.255C170.113 112.642 170.593 113.195 170.927 113.915C171.26 114.622 171.427 115.462 171.427 116.435V117.035H163.647V116.015H170.367L170.027 116.275C170.027 115.208 169.787 114.375 169.307 113.775C168.827 113.175 168.113 112.875 167.167 112.875C166.167 112.875 165.387 113.228 164.827 113.935C164.267 114.628 163.987 115.568 163.987 116.755V116.935C163.987 118.188 164.293 119.142 164.907 119.795C165.533 120.435 166.407 120.755 167.527 120.755C168.127 120.755 168.687 120.668 169.207 120.495C169.74 120.308 170.247 120.008 170.727 119.595L171.287 120.735C170.847 121.162 170.287 121.495 169.607 121.735C168.94 121.962 168.233 122.075 167.487 122.075ZM177.341 122.075C176.488 122.075 175.681 121.962 174.921 121.735C174.174 121.495 173.561 121.168 173.081 120.755L173.641 119.615C174.134 120.015 174.688 120.322 175.301 120.535C175.928 120.735 176.608 120.835 177.341 120.835C178.328 120.835 179.041 120.682 179.481 120.375C179.921 120.068 180.141 119.635 180.141 119.075C180.141 118.528 179.954 118.115 179.581 117.835C179.208 117.542 178.661 117.395 177.941 117.395H175.581V116.195H177.741C178.381 116.195 178.881 116.055 179.241 115.775C179.614 115.482 179.801 115.082 179.801 114.575C179.801 114.055 179.601 113.648 179.201 113.355C178.801 113.048 178.174 112.895 177.321 112.895C176.641 112.895 176.008 112.988 175.421 113.175C174.848 113.348 174.301 113.628 173.781 114.015L173.241 112.915C173.788 112.488 174.421 112.175 175.141 111.975C175.861 111.775 176.641 111.675 177.481 111.675C178.734 111.675 179.688 111.922 180.341 112.415C180.994 112.895 181.321 113.582 181.321 114.475C181.321 115.102 181.108 115.642 180.681 116.095C180.254 116.535 179.688 116.795 178.981 116.875V116.635C179.781 116.662 180.428 116.902 180.921 117.355C181.414 117.808 181.661 118.402 181.661 119.135C181.661 120.028 181.294 120.742 180.561 121.275C179.841 121.808 178.768 122.075 177.341 122.075ZM183.857 126.435L183.477 125.095C184.104 124.948 184.624 124.775 185.037 124.575C185.464 124.388 185.817 124.135 186.097 123.815C186.377 123.495 186.617 123.095 186.817 122.615L187.337 121.435L187.297 122.115L182.917 111.855H184.677L188.297 120.675H187.777L191.357 111.855H193.057L188.417 122.735C188.15 123.375 187.857 123.908 187.537 124.335C187.217 124.775 186.87 125.128 186.497 125.395C186.137 125.675 185.737 125.895 185.297 126.055C184.857 126.215 184.377 126.342 183.857 126.435ZM194.997 121.895V111.855H196.357L200.117 118.595L203.897 111.855H205.257V121.895H203.817V113.655H204.237L200.537 120.275H199.717L195.997 113.635H196.437V121.895H194.997ZM208.454 121.895V111.855H210.074V116.055H215.594V111.855H217.214V121.895H215.594V117.355H210.074V121.895H208.454ZM224.608 122.075C223.648 122.075 222.808 121.868 222.088 121.455C221.381 121.028 220.834 120.428 220.448 119.655C220.061 118.868 219.868 117.942 219.868 116.875C219.868 115.795 220.061 114.868 220.448 114.095C220.834 113.322 221.381 112.728 222.088 112.315C222.808 111.888 223.648 111.675 224.608 111.675C225.581 111.675 226.421 111.888 227.128 112.315C227.848 112.728 228.401 113.322 228.788 114.095C229.188 114.868 229.388 115.795 229.388 116.875C229.388 117.942 229.188 118.868 228.788 119.655C228.401 120.428 227.848 121.028 227.128 121.455C226.421 121.868 225.581 122.075 224.608 122.075ZM224.608 120.755C225.568 120.755 226.328 120.428 226.888 119.775C227.448 119.108 227.728 118.142 227.728 116.875C227.728 115.595 227.441 114.628 226.868 113.975C226.308 113.308 225.554 112.975 224.608 112.975C223.661 112.975 222.908 113.308 222.348 113.975C221.788 114.628 221.508 115.595 221.508 116.875C221.508 118.142 221.788 119.108 222.348 119.775C222.908 120.428 223.661 120.755 224.608 120.755ZM237.244 121.895V111.855H238.864V116.055H244.384V111.855H246.004V121.895H244.384V117.355H238.864V121.895H237.244ZM249.277 126.215V114.175C249.277 113.802 249.257 113.422 249.217 113.035C249.19 112.635 249.157 112.242 249.117 111.855H250.677L250.897 114.235H250.657C250.87 113.448 251.303 112.828 251.957 112.375C252.61 111.908 253.39 111.675 254.297 111.675C255.203 111.675 255.983 111.882 256.637 112.295C257.303 112.708 257.823 113.302 258.197 114.075C258.57 114.848 258.757 115.782 258.757 116.875C258.757 117.955 258.57 118.882 258.197 119.655C257.837 120.428 257.323 121.028 256.657 121.455C255.99 121.868 255.203 122.075 254.297 122.075C253.403 122.075 252.63 121.848 251.977 121.395C251.323 120.942 250.89 120.322 250.677 119.535H250.897V126.215H249.277ZM253.977 120.755C254.937 120.755 255.697 120.428 256.257 119.775C256.83 119.108 257.117 118.142 257.117 116.875C257.117 115.595 256.83 114.628 256.257 113.975C255.697 113.308 254.937 112.975 253.977 112.975C253.03 112.975 252.27 113.308 251.697 113.975C251.137 114.628 250.857 115.595 250.857 116.875C250.857 118.142 251.137 119.108 251.697 119.775C252.27 120.428 253.03 120.755 253.977 120.755ZM265.304 122.075C264.41 122.075 263.63 121.868 262.964 121.455C262.297 121.028 261.777 120.428 261.404 119.655C261.044 118.882 260.864 117.955 260.864 116.875C260.864 115.782 261.044 114.848 261.404 114.075C261.777 113.302 262.297 112.708 262.964 112.295C263.63 111.882 264.41 111.675 265.304 111.675C266.21 111.675 266.99 111.908 267.644 112.375C268.31 112.828 268.75 113.448 268.964 114.235H268.724L268.944 111.855H270.504C270.464 112.242 270.424 112.635 270.384 113.035C270.357 113.422 270.344 113.802 270.344 114.175V121.895H268.724V119.535H268.944C268.73 120.322 268.29 120.942 267.624 121.395C266.957 121.848 266.184 122.075 265.304 122.075ZM265.624 120.755C266.584 120.755 267.344 120.428 267.904 119.775C268.464 119.108 268.744 118.142 268.744 116.875C268.744 115.595 268.464 114.628 267.904 113.975C267.344 113.308 266.584 112.975 265.624 112.975C264.677 112.975 263.917 113.308 263.344 113.975C262.784 114.628 262.504 115.595 262.504 116.875C262.504 118.142 262.784 119.108 263.344 119.775C263.917 120.428 264.677 120.755 265.624 120.755ZM273.611 121.895V111.855H278.451C279.611 111.855 280.477 112.082 281.051 112.535C281.637 112.975 281.931 113.628 281.931 114.495C281.931 115.135 281.704 115.675 281.251 116.115C280.811 116.542 280.237 116.795 279.531 116.875V116.635C280.357 116.662 281.017 116.902 281.511 117.355C282.004 117.808 282.251 118.395 282.251 119.115C282.251 119.982 281.931 120.662 281.291 121.155C280.664 121.648 279.771 121.895 278.611 121.895H273.611ZM275.151 120.795H278.531C279.237 120.795 279.777 120.648 280.151 120.355C280.537 120.048 280.731 119.615 280.731 119.055C280.731 118.495 280.537 118.068 280.151 117.775C279.777 117.482 279.237 117.335 278.531 117.335H275.151V120.795ZM275.151 116.235H278.351C279.004 116.235 279.511 116.088 279.871 115.795C280.231 115.502 280.411 115.095 280.411 114.575C280.411 114.055 280.231 113.655 279.871 113.375C279.511 113.082 279.004 112.935 278.351 112.935H275.151V116.235ZM284.763 121.895V111.855H286.243V120.395H285.703L292.103 111.855H293.463V121.895H292.003V113.335H292.543L286.143 121.895H284.763ZM298.798 121.895V113.155H295.158V111.855H304.078V113.155H300.418V121.895H298.798ZM310.02 122.075C309.033 122.075 308.173 121.862 307.44 121.435C306.72 121.008 306.16 120.402 305.76 119.615C305.373 118.828 305.18 117.895 305.18 116.815C305.18 115.722 305.38 114.795 305.78 114.035C306.18 113.262 306.74 112.675 307.46 112.275C308.193 111.875 309.047 111.675 310.02 111.675C310.66 111.675 311.28 111.788 311.88 112.015C312.493 112.242 313 112.562 313.4 112.975L312.82 114.135C312.42 113.748 311.98 113.462 311.5 113.275C311.033 113.088 310.573 112.995 310.12 112.995C309.08 112.995 308.273 113.322 307.7 113.975C307.127 114.628 306.84 115.582 306.84 116.835C306.84 118.075 307.127 119.035 307.7 119.715C308.273 120.395 309.08 120.735 310.12 120.735C310.56 120.735 311.013 120.648 311.48 120.475C311.96 120.302 312.407 120.015 312.82 119.615L313.4 120.755C312.987 121.182 312.473 121.508 311.86 121.735C311.247 121.962 310.633 122.075 310.02 122.075ZM315.018 121.895L316.618 119.135C316.871 118.695 317.191 118.342 317.578 118.075C317.964 117.795 318.371 117.655 318.798 117.655H319.078L319.058 117.835C317.924 117.835 317.044 117.582 316.418 117.075C315.791 116.555 315.478 115.808 315.478 114.835C315.478 113.902 315.784 113.175 316.398 112.655C317.011 112.122 317.924 111.855 319.138 111.855H323.598V121.895H322.078V118.015H320.578C320.018 118.015 319.544 118.155 319.158 118.435C318.771 118.715 318.444 119.068 318.178 119.495L316.818 121.895H315.018ZM319.418 116.875H322.078V112.975H319.418C318.604 112.975 317.998 113.148 317.598 113.495C317.211 113.842 317.018 114.315 317.018 114.915C317.018 115.542 317.211 116.028 317.598 116.375C317.998 116.708 318.604 116.875 319.418 116.875ZM66.3779 147.075C65.4846 147.075 64.7046 146.868 64.0379 146.455C63.3713 146.028 62.8513 145.428 62.4779 144.655C62.1179 143.882 61.9379 142.955 61.9379 141.875C61.9379 140.782 62.1179 139.848 62.4779 139.075C62.8513 138.302 63.3713 137.708 64.0379 137.295C64.7046 136.882 65.4846 136.675 66.3779 136.675C67.2846 136.675 68.0646 136.908 68.7179 137.375C69.3846 137.828 69.8246 138.448 70.0379 139.235H69.7979L70.0179 136.855H71.5779C71.5379 137.242 71.4979 137.635 71.4579 138.035C71.4313 138.422 71.4179 138.802 71.4179 139.175V146.895H69.7979V144.535H70.0179C69.8046 145.322 69.3646 145.942 68.6979 146.395C68.0313 146.848 67.2579 147.075 66.3779 147.075ZM66.6979 145.755C67.6579 145.755 68.4179 145.428 68.9779 144.775C69.5379 144.108 69.8179 143.142 69.8179 141.875C69.8179 140.595 69.5379 139.628 68.9779 138.975C68.4179 138.308 67.6579 137.975 66.6979 137.975C65.7513 137.975 64.9913 138.308 64.4179 138.975C63.8579 139.628 63.5779 140.595 63.5779 141.875C63.5779 143.142 63.8579 144.108 64.4179 144.775C64.9913 145.428 65.7513 145.755 66.6979 145.755ZM74.765 151.215V139.175C74.765 138.802 74.745 138.422 74.705 138.035C74.6783 137.635 74.645 137.242 74.605 136.855H76.165L76.385 139.235H76.145C76.3583 138.448 76.7916 137.828 77.445 137.375C78.0983 136.908 78.8783 136.675 79.785 136.675C80.6916 136.675 81.4716 136.882 82.125 137.295C82.7916 137.708 83.3116 138.302 83.685 139.075C84.0583 139.848 84.245 140.782 84.245 141.875C84.245 142.955 84.0583 143.882 83.685 144.655C83.325 145.428 82.8116 146.028 82.145 146.455C81.4783 146.868 80.6916 147.075 79.785 147.075C78.8916 147.075 78.1183 146.848 77.465 146.395C76.8116 145.942 76.3783 145.322 76.165 144.535H76.385V151.215H74.765ZM79.465 145.755C80.425 145.755 81.185 145.428 81.745 144.775C82.3183 144.108 82.605 143.142 82.605 141.875C82.605 140.595 82.3183 139.628 81.745 138.975C81.185 138.308 80.425 137.975 79.465 137.975C78.5183 137.975 77.7583 138.308 77.185 138.975C76.625 139.628 76.345 140.595 76.345 141.875C76.345 143.142 76.625 144.108 77.185 144.775C77.7583 145.428 78.5183 145.755 79.465 145.755ZM85.4167 146.895L89.9167 141.315V142.115L85.6567 136.855H87.6167L90.8367 140.955H90.2567L93.4567 136.855H95.3967L91.1967 142.095V141.355L95.6567 146.895H93.6767L90.2367 142.515H90.8367L87.3567 146.895H85.4167ZM101.92 147.075C100.347 147.075 99.1069 146.622 98.2003 145.715C97.2936 144.795 96.8403 143.522 96.8403 141.895C96.8403 140.842 97.0403 139.928 97.4403 139.155C97.8403 138.368 98.4003 137.762 99.1203 137.335C99.8403 136.895 100.667 136.675 101.6 136.675C102.52 136.675 103.294 136.868 103.92 137.255C104.547 137.642 105.027 138.195 105.36 138.915C105.694 139.622 105.86 140.462 105.86 141.435V142.035H98.0803V141.015H104.8L104.46 141.275C104.46 140.208 104.22 139.375 103.74 138.775C103.26 138.175 102.547 137.875 101.6 137.875C100.6 137.875 99.8203 138.228 99.2603 138.935C98.7003 139.628 98.4203 140.568 98.4203 141.755V141.935C98.4203 143.188 98.7269 144.142 99.3403 144.795C99.9669 145.435 100.84 145.755 101.96 145.755C102.56 145.755 103.12 145.668 103.64 145.495C104.174 145.308 104.68 145.008 105.16 144.595L105.72 145.735C105.28 146.162 104.72 146.495 104.04 146.735C103.374 146.962 102.667 147.075 101.92 147.075ZM112.654 147.075C111.694 147.075 110.854 146.868 110.134 146.455C109.428 146.028 108.881 145.428 108.494 144.655C108.108 143.868 107.914 142.942 107.914 141.875C107.914 140.795 108.108 139.868 108.494 139.095C108.881 138.322 109.428 137.728 110.134 137.315C110.854 136.888 111.694 136.675 112.654 136.675C113.628 136.675 114.468 136.888 115.174 137.315C115.894 137.728 116.448 138.322 116.834 139.095C117.234 139.868 117.434 140.795 117.434 141.875C117.434 142.942 117.234 143.868 116.834 144.655C116.448 145.428 115.894 146.028 115.174 146.455C114.468 146.868 113.628 147.075 112.654 147.075ZM112.654 145.755C113.614 145.755 114.374 145.428 114.934 144.775C115.494 144.108 115.774 143.142 115.774 141.875C115.774 140.595 115.488 139.628 114.914 138.975C114.354 138.308 113.601 137.975 112.654 137.975C111.708 137.975 110.954 138.308 110.394 138.975C109.834 139.628 109.554 140.595 109.554 141.875C109.554 143.142 109.834 144.108 110.394 144.775C110.954 145.428 111.708 145.755 112.654 145.755ZM119.34 147.115L118.74 145.855C119.207 145.642 119.594 145.382 119.9 145.075C120.22 144.755 120.474 144.355 120.66 143.875C120.847 143.382 120.98 142.775 121.06 142.055C121.14 141.322 121.18 140.442 121.18 139.415V136.855H128.42V146.895H126.82V138.135H122.68V139.475C122.68 141.048 122.567 142.342 122.34 143.355C122.127 144.368 121.774 145.175 121.28 145.775C120.8 146.362 120.154 146.808 119.34 147.115ZM135.819 147.075C134.859 147.075 134.019 146.868 133.299 146.455C132.592 146.028 132.045 145.428 131.659 144.655C131.272 143.868 131.079 142.942 131.079 141.875C131.079 140.795 131.272 139.868 131.659 139.095C132.045 138.322 132.592 137.728 133.299 137.315C134.019 136.888 134.859 136.675 135.819 136.675C136.792 136.675 137.632 136.888 138.339 137.315C139.059 137.728 139.612 138.322 139.999 139.095C140.399 139.868 140.599 140.795 140.599 141.875C140.599 142.942 140.399 143.868 139.999 144.655C139.612 145.428 139.059 146.028 138.339 146.455C137.632 146.868 136.792 147.075 135.819 147.075ZM135.819 145.755C136.779 145.755 137.539 145.428 138.099 144.775C138.659 144.108 138.939 143.142 138.939 141.875C138.939 140.595 138.652 139.628 138.079 138.975C137.519 138.308 136.765 137.975 135.819 137.975C134.872 137.975 134.119 138.308 133.559 138.975C132.999 139.628 132.719 140.595 132.719 141.875C132.719 143.142 132.999 144.108 133.559 144.775C134.119 145.428 134.872 145.755 135.819 145.755ZM143.24 146.895V136.855H150.24V138.155H144.86V146.895H143.24ZM152.146 146.895V136.855H153.626V145.395H153.086L159.486 136.855H160.846V146.895H159.386V138.335H159.926L153.526 146.895H152.146ZM163.24 146.895L164.84 144.135C165.094 143.695 165.414 143.342 165.8 143.075C166.187 142.795 166.594 142.655 167.02 142.655H167.3L167.28 142.835C166.147 142.835 165.267 142.582 164.64 142.075C164.014 141.555 163.7 140.808 163.7 139.835C163.7 138.902 164.007 138.175 164.62 137.655C165.234 137.122 166.147 136.855 167.36 136.855H171.82V146.895H170.3V143.015H168.8C168.24 143.015 167.767 143.155 167.38 143.435C166.994 143.715 166.667 144.068 166.4 144.495L165.04 146.895H163.24ZM167.64 141.875H170.3V137.975H167.64C166.827 137.975 166.22 138.148 165.82 138.495C165.434 138.842 165.24 139.315 165.24 139.915C165.24 140.542 165.434 141.028 165.82 141.375C166.22 141.708 166.827 141.875 167.64 141.875ZM180.232 146.895V136.855H181.712V145.395H181.172L187.572 136.855H188.932V146.895H187.472V138.335H188.012L181.612 146.895H180.232ZM197.421 151.215V139.175C197.421 138.802 197.401 138.422 197.361 138.035C197.335 137.635 197.301 137.242 197.261 136.855H198.821L199.041 139.235H198.801C199.015 138.448 199.448 137.828 200.101 137.375C200.755 136.908 201.535 136.675 202.441 136.675C203.348 136.675 204.128 136.882 204.781 137.295C205.448 137.708 205.968 138.302 206.341 139.075C206.715 139.848 206.901 140.782 206.901 141.875C206.901 142.955 206.715 143.882 206.341 144.655C205.981 145.428 205.468 146.028 204.801 146.455C204.135 146.868 203.348 147.075 202.441 147.075C201.548 147.075 200.775 146.848 200.121 146.395C199.468 145.942 199.035 145.322 198.821 144.535H199.041V151.215H197.421ZM202.121 145.755C203.081 145.755 203.841 145.428 204.401 144.775C204.975 144.108 205.261 143.142 205.261 141.875C205.261 140.595 204.975 139.628 204.401 138.975C203.841 138.308 203.081 137.975 202.121 137.975C201.175 137.975 200.415 138.308 199.841 138.975C199.281 139.628 199.001 140.595 199.001 141.875C199.001 143.142 199.281 144.108 199.841 144.775C200.415 145.428 201.175 145.755 202.121 145.755ZM213.448 147.075C212.555 147.075 211.775 146.868 211.108 146.455C210.442 146.028 209.922 145.428 209.548 144.655C209.188 143.882 209.008 142.955 209.008 141.875C209.008 140.782 209.188 139.848 209.548 139.075C209.922 138.302 210.442 137.708 211.108 137.295C211.775 136.882 212.555 136.675 213.448 136.675C214.355 136.675 215.135 136.908 215.788 137.375C216.455 137.828 216.895 138.448 217.108 139.235H216.868L217.088 136.855H218.648C218.608 137.242 218.568 137.635 218.528 138.035C218.502 138.422 218.488 138.802 218.488 139.175V146.895H216.868V144.535H217.088C216.875 145.322 216.435 145.942 215.768 146.395C215.102 146.848 214.328 147.075 213.448 147.075ZM213.768 145.755C214.728 145.755 215.488 145.428 216.048 144.775C216.608 144.108 216.888 143.142 216.888 141.875C216.888 140.595 216.608 139.628 216.048 138.975C215.488 138.308 214.728 137.975 213.768 137.975C212.822 137.975 212.062 138.308 211.488 138.975C210.928 139.628 210.648 140.595 210.648 141.875C210.648 143.142 210.928 144.108 211.488 144.775C212.062 145.428 212.822 145.755 213.768 145.755ZM226.055 147.075C225.069 147.075 224.209 146.862 223.475 146.435C222.755 146.008 222.195 145.402 221.795 144.615C221.409 143.828 221.215 142.895 221.215 141.815C221.215 140.722 221.415 139.795 221.815 139.035C222.215 138.262 222.775 137.675 223.495 137.275C224.229 136.875 225.082 136.675 226.055 136.675C226.695 136.675 227.315 136.788 227.915 137.015C228.529 137.242 229.035 137.562 229.435 137.975L228.855 139.135C228.455 138.748 228.015 138.462 227.535 138.275C227.069 138.088 226.609 137.995 226.155 137.995C225.115 137.995 224.309 138.322 223.735 138.975C223.162 139.628 222.875 140.582 222.875 141.835C222.875 143.075 223.162 144.035 223.735 144.715C224.309 145.395 225.115 145.735 226.155 145.735C226.595 145.735 227.049 145.648 227.515 145.475C227.995 145.302 228.442 145.015 228.855 144.615L229.435 145.755C229.022 146.182 228.509 146.508 227.895 146.735C227.282 146.962 226.669 147.075 226.055 147.075ZM231.853 146.895V136.855H233.473V141.075H235.373L238.693 136.855H240.473L236.673 141.715L236.233 141.215C236.62 141.255 236.953 141.348 237.233 141.495C237.513 141.642 237.78 141.862 238.033 142.155C238.3 142.448 238.586 142.855 238.893 143.375L240.973 146.895H239.233L237.393 143.775C237.166 143.388 236.946 143.095 236.733 142.895C236.533 142.695 236.3 142.555 236.033 142.475C235.78 142.395 235.46 142.355 235.073 142.355H233.473V146.895H231.853ZM246.815 147.075C245.855 147.075 245.015 146.868 244.295 146.455C243.588 146.028 243.041 145.428 242.655 144.655C242.268 143.868 242.075 142.942 242.075 141.875C242.075 140.795 242.268 139.868 242.655 139.095C243.041 138.322 243.588 137.728 244.295 137.315C245.015 136.888 245.855 136.675 246.815 136.675C247.788 136.675 248.628 136.888 249.335 137.315C250.055 137.728 250.608 138.322 250.995 139.095C251.395 139.868 251.595 140.795 251.595 141.875C251.595 142.942 251.395 143.868 250.995 144.655C250.608 145.428 250.055 146.028 249.335 146.455C248.628 146.868 247.788 147.075 246.815 147.075ZM246.815 145.755C247.775 145.755 248.535 145.428 249.095 144.775C249.655 144.108 249.935 143.142 249.935 141.875C249.935 140.595 249.648 139.628 249.075 138.975C248.515 138.308 247.761 137.975 246.815 137.975C245.868 137.975 245.115 138.308 244.555 138.975C243.995 139.628 243.715 140.595 243.715 141.875C243.715 143.142 243.995 144.108 244.555 144.775C245.115 145.428 245.868 145.755 246.815 145.755ZM254.236 146.895V136.855H262.936V146.895H261.316V138.135H255.856V146.895H254.236ZM266.13 146.895V136.855H267.75V141.075H269.65L272.97 136.855H274.75L270.95 141.715L270.51 141.215C270.897 141.255 271.23 141.348 271.51 141.495C271.79 141.642 272.057 141.862 272.31 142.155C272.577 142.448 272.864 142.855 273.17 143.375L275.25 146.895H273.51L271.67 143.775C271.444 143.388 271.224 143.095 271.01 142.895C270.81 142.695 270.577 142.555 270.31 142.475C270.057 142.395 269.737 142.355 269.35 142.355H267.75V146.895H266.13ZM276.892 146.895V136.855H278.372V145.395H277.832L284.232 136.855H285.592V146.895H284.132V138.335H284.672L278.272 146.895H276.892ZM288.447 146.895V144.855H290.487V146.895H288.447ZM298.732 146.895V132.795H300.172L305.832 145.575H305.252L310.912 132.795H312.352V146.895H310.832V134.935H311.432L306.092 146.895H304.992L299.632 134.935H300.232V146.895H298.732ZM315.72 146.895V136.855H317.34V140.455H320.36C321.653 140.455 322.627 140.735 323.28 141.295C323.947 141.842 324.28 142.622 324.28 143.635C324.28 144.315 324.127 144.902 323.82 145.395C323.527 145.875 323.087 146.248 322.5 146.515C321.927 146.768 321.213 146.895 320.36 146.895H315.72ZM317.34 145.735H320.22C321.033 145.735 321.653 145.568 322.08 145.235C322.507 144.888 322.72 144.362 322.72 143.655C322.72 142.948 322.507 142.435 322.08 142.115C321.667 141.782 321.047 141.615 320.22 141.615H317.34V145.735ZM325.8 146.895V136.855H327.4V146.895H325.8ZM334.538 146.895L339.038 141.315V142.115L334.778 136.855H336.738L339.958 140.955H339.378L342.578 136.855H344.518L340.318 142.095V141.355L344.778 146.895H342.798L339.358 142.515H339.958L336.478 146.895H334.538ZM350.701 147.075C349.741 147.075 348.901 146.868 348.181 146.455C347.475 146.028 346.928 145.428 346.541 144.655C346.155 143.868 345.961 142.942 345.961 141.875C345.961 140.795 346.155 139.868 346.541 139.095C346.928 138.322 347.475 137.728 348.181 137.315C348.901 136.888 349.741 136.675 350.701 136.675C351.675 136.675 352.515 136.888 353.221 137.315C353.941 137.728 354.495 138.322 354.881 139.095C355.281 139.868 355.481 140.795 355.481 141.875C355.481 142.942 355.281 143.868 354.881 144.655C354.495 145.428 353.941 146.028 353.221 146.455C352.515 146.868 351.675 147.075 350.701 147.075ZM350.701 145.755C351.661 145.755 352.421 145.428 352.981 144.775C353.541 144.108 353.821 143.142 353.821 141.875C353.821 140.595 353.535 139.628 352.961 138.975C352.401 138.308 351.648 137.975 350.701 137.975C349.755 137.975 349.001 138.308 348.441 138.975C347.881 139.628 347.601 140.595 347.601 141.875C347.601 143.142 347.881 144.108 348.441 144.775C349.001 145.428 349.755 145.755 350.701 145.755ZM360.262 146.895V138.155H356.622V136.855H365.542V138.155H361.882V146.895H360.262ZM367.224 146.895V136.855H368.704V145.395H368.164L374.564 136.855H375.924V146.895H374.464V138.335H375.004L368.604 146.895H367.224ZM379.119 146.895V136.855H380.479L384.239 143.595L388.019 136.855H389.379V146.895H387.939V138.655H388.359L384.659 145.275H383.839L380.119 138.635H380.559V146.895H379.119ZM393.076 149.175L392.316 148.595C392.676 148.222 392.909 147.868 393.016 147.535C393.136 147.215 393.196 146.888 393.196 146.555L393.556 146.895H392.236V144.855H394.276V146.295C394.276 146.828 394.189 147.328 394.016 147.795C393.842 148.275 393.529 148.735 393.076 149.175ZM68.9579 171.895V167.815C68.5713 168.042 68.1513 168.215 67.6979 168.335C67.2446 168.455 66.7579 168.515 66.2379 168.515C64.8246 168.515 63.7713 168.188 63.0779 167.535C62.3979 166.868 62.0579 165.862 62.0579 164.515V161.855H63.6779V164.395C63.6779 165.368 63.8979 166.075 64.3379 166.515C64.7913 166.942 65.4979 167.155 66.4579 167.155C66.9513 167.155 67.3913 167.102 67.7779 166.995C68.1646 166.888 68.5446 166.708 68.9179 166.455V161.855H70.5379V171.895H68.9579ZM75.8875 171.895V163.155H72.2475V161.855H81.1675V163.155H77.5075V171.895H75.8875ZM87.01 172.075C86.05 172.075 85.21 171.868 84.49 171.455C83.7833 171.028 83.2366 170.428 82.85 169.655C82.4633 168.868 82.27 167.942 82.27 166.875C82.27 165.795 82.4633 164.868 82.85 164.095C83.2366 163.322 83.7833 162.728 84.49 162.315C85.21 161.888 86.05 161.675 87.01 161.675C87.9833 161.675 88.8233 161.888 89.53 162.315C90.25 162.728 90.8033 163.322 91.19 164.095C91.59 164.868 91.79 165.795 91.79 166.875C91.79 167.942 91.59 168.868 91.19 169.655C90.8033 170.428 90.25 171.028 89.53 171.455C88.8233 171.868 87.9833 172.075 87.01 172.075ZM87.01 170.755C87.97 170.755 88.73 170.428 89.29 169.775C89.85 169.108 90.13 168.142 90.13 166.875C90.13 165.595 89.8433 164.628 89.27 163.975C88.71 163.308 87.9566 162.975 87.01 162.975C86.0633 162.975 85.31 163.308 84.75 163.975C84.19 164.628 83.91 165.595 83.91 166.875C83.91 168.142 84.19 169.108 84.75 169.775C85.31 170.428 86.0633 170.755 87.01 170.755ZM98.6911 172.075C97.2244 172.075 96.0577 171.602 95.1911 170.655C94.3244 169.708 93.8911 168.328 93.8911 166.515V164.755C93.8911 162.902 94.2711 161.402 95.0311 160.255C95.7911 159.108 96.9911 158.335 98.6311 157.935L102.291 157.015L102.791 158.335L98.7311 159.335C97.9844 159.522 97.3711 159.848 96.8911 160.315C96.4111 160.768 96.0444 161.315 95.7911 161.955C95.5511 162.582 95.4311 163.248 95.4311 163.955V164.755H95.1911C95.3511 164.155 95.6111 163.642 95.9711 163.215C96.3311 162.775 96.7711 162.442 97.2911 162.215C97.8244 161.975 98.4111 161.855 99.0511 161.855C99.9177 161.855 100.678 162.062 101.331 162.475C101.984 162.875 102.491 163.455 102.851 164.215C103.224 164.962 103.411 165.862 103.411 166.915C103.411 167.968 103.218 168.882 102.831 169.655C102.444 170.428 101.898 171.028 101.191 171.455C100.484 171.868 99.6511 172.075 98.6911 172.075ZM98.6511 170.775C99.6244 170.775 100.391 170.455 100.951 169.815C101.511 169.162 101.791 168.208 101.791 166.955C101.791 165.715 101.504 164.775 100.931 164.135C100.371 163.482 99.6111 163.155 98.6511 163.155C97.6911 163.155 96.9244 163.475 96.3511 164.115C95.7911 164.755 95.5111 165.662 95.5111 166.835C95.5111 168.142 95.7911 169.128 96.3511 169.795C96.9111 170.448 97.6777 170.775 98.6511 170.775ZM106.072 171.895V161.855H107.692V165.455H110.712C112.005 165.455 112.978 165.735 113.632 166.295C114.298 166.842 114.632 167.622 114.632 168.635C114.632 169.315 114.478 169.902 114.172 170.395C113.878 170.875 113.438 171.248 112.852 171.515C112.278 171.768 111.565 171.895 110.712 171.895H106.072ZM107.692 170.735H110.572C111.385 170.735 112.005 170.568 112.432 170.235C112.858 169.888 113.072 169.362 113.072 168.655C113.072 167.948 112.858 167.435 112.432 167.115C112.018 166.782 111.398 166.615 110.572 166.615H107.692V170.735ZM116.152 171.895V161.855H117.752V171.895H116.152ZM125.629 172.115L125.029 170.855C125.496 170.642 125.883 170.382 126.189 170.075C126.509 169.755 126.763 169.355 126.949 168.875C127.136 168.382 127.269 167.775 127.349 167.055C127.429 166.322 127.469 165.442 127.469 164.415V161.855H134.709V171.895H133.109V163.135H128.969V164.475C128.969 166.048 128.856 167.342 128.629 168.355C128.416 169.368 128.063 170.175 127.569 170.775C127.089 171.362 126.443 171.808 125.629 172.115ZM146.248 172.075C144.874 172.075 143.768 171.655 142.928 170.815C142.088 169.975 141.614 168.822 141.508 167.355H139.488V171.895H137.908V161.855H139.488V166.055H141.528C141.688 164.682 142.181 163.608 143.008 162.835C143.848 162.062 144.928 161.675 146.248 161.675C147.208 161.675 148.041 161.882 148.748 162.295C149.468 162.708 150.021 163.308 150.408 164.095C150.808 164.868 151.008 165.795 151.008 166.875C151.008 167.942 150.808 168.868 150.408 169.655C150.021 170.428 149.468 171.028 148.748 171.455C148.041 171.868 147.208 172.075 146.248 172.075ZM146.248 170.775C147.194 170.775 147.954 170.448 148.528 169.795C149.101 169.128 149.388 168.155 149.388 166.875C149.388 165.595 149.101 164.628 148.528 163.975C147.954 163.308 147.194 162.975 146.248 162.975C145.288 162.975 144.521 163.308 143.948 163.975C143.388 164.628 143.108 165.595 143.108 166.875C143.108 168.155 143.388 169.128 143.948 169.795C144.521 170.448 145.288 170.775 146.248 170.775ZM152.59 174.495V170.615H153.65C154.13 169.935 154.476 169.122 154.69 168.175C154.903 167.228 155.01 166.108 155.01 164.815V161.855H162.07V170.615H163.65V174.495H162.25V171.895H153.97V174.495H152.59ZM155.21 170.635H160.53V163.115H156.43V165.075C156.43 166.128 156.323 167.148 156.11 168.135C155.91 169.108 155.61 169.942 155.21 170.635ZM165.818 171.895V161.855H167.298V170.395H166.758L173.158 161.855H174.518V171.895H173.058V163.335H173.598L167.198 171.895H165.818ZM182.607 176.435L182.227 175.095C182.854 174.948 183.374 174.775 183.787 174.575C184.214 174.388 184.567 174.135 184.847 173.815C185.127 173.495 185.367 173.095 185.567 172.615L186.087 171.435L186.047 172.115L181.667 161.855H183.427L187.047 170.675H186.527L190.107 161.855H191.807L187.167 172.735C186.9 173.375 186.607 173.908 186.287 174.335C185.967 174.775 185.62 175.128 185.247 175.395C184.887 175.675 184.487 175.895 184.047 176.055C183.607 176.215 183.127 176.342 182.607 176.435ZM197.028 172.075C196.175 172.075 195.368 171.962 194.608 171.735C193.862 171.495 193.248 171.168 192.768 170.755L193.328 169.615C193.822 170.015 194.375 170.322 194.988 170.535C195.615 170.735 196.295 170.835 197.028 170.835C198.015 170.835 198.728 170.682 199.168 170.375C199.608 170.068 199.828 169.635 199.828 169.075C199.828 168.528 199.642 168.115 199.268 167.835C198.895 167.542 198.348 167.395 197.628 167.395H195.268V166.195H197.428C198.068 166.195 198.568 166.055 198.928 165.775C199.302 165.482 199.488 165.082 199.488 164.575C199.488 164.055 199.288 163.648 198.888 163.355C198.488 163.048 197.862 162.895 197.008 162.895C196.328 162.895 195.695 162.988 195.108 163.175C194.535 163.348 193.988 163.628 193.468 164.015L192.928 162.915C193.475 162.488 194.108 162.175 194.828 161.975C195.548 161.775 196.328 161.675 197.168 161.675C198.422 161.675 199.375 161.922 200.028 162.415C200.682 162.895 201.008 163.582 201.008 164.475C201.008 165.102 200.795 165.642 200.368 166.095C199.942 166.535 199.375 166.795 198.668 166.875V166.635C199.468 166.662 200.115 166.902 200.608 167.355C201.102 167.808 201.348 168.402 201.348 169.135C201.348 170.028 200.982 170.742 200.248 171.275C199.528 171.808 198.455 172.075 197.028 172.075ZM203.865 171.895V161.855H205.485V166.055H211.005V161.855H212.625V171.895H211.005V167.355H205.485V171.895H203.865ZM219.718 172.075C218.824 172.075 218.044 171.868 217.378 171.455C216.711 171.028 216.191 170.428 215.818 169.655C215.458 168.882 215.278 167.955 215.278 166.875C215.278 165.782 215.458 164.848 215.818 164.075C216.191 163.302 216.711 162.708 217.378 162.295C218.044 161.882 218.824 161.675 219.718 161.675C220.624 161.675 221.404 161.908 222.058 162.375C222.724 162.828 223.164 163.448 223.378 164.235H223.138L223.358 161.855H224.918C224.878 162.242 224.838 162.635 224.798 163.035C224.771 163.422 224.758 163.802 224.758 164.175V171.895H223.138V169.535H223.358C223.144 170.322 222.704 170.942 222.038 171.395C221.371 171.848 220.598 172.075 219.718 172.075ZM220.038 170.755C220.998 170.755 221.758 170.428 222.318 169.775C222.878 169.108 223.158 168.142 223.158 166.875C223.158 165.595 222.878 164.628 222.318 163.975C221.758 163.308 220.998 162.975 220.038 162.975C219.091 162.975 218.331 163.308 217.758 163.975C217.198 164.628 216.918 165.595 216.918 166.875C216.918 168.142 217.198 169.108 217.758 169.775C218.331 170.428 219.091 170.755 220.038 170.755ZM227.485 172.115L226.885 170.855C227.351 170.642 227.738 170.382 228.045 170.075C228.365 169.755 228.618 169.355 228.805 168.875C228.991 168.382 229.125 167.775 229.205 167.055C229.285 166.322 229.325 165.442 229.325 164.415V161.855H236.565V171.895H234.965V163.135H230.825V164.475C230.825 166.048 230.711 167.342 230.485 168.355C230.271 169.368 229.918 170.175 229.425 170.775C228.945 171.362 228.298 171.808 227.485 172.115ZM239.763 171.895V161.855H241.243V170.395H240.703L247.103 161.855H248.463V171.895H247.003V163.335H247.543L241.143 171.895H239.763ZM252.158 174.175L251.398 173.595C251.758 173.222 251.991 172.868 252.098 172.535C252.218 172.215 252.278 171.888 252.278 171.555L252.638 171.895H251.318V169.855H253.358V171.295C253.358 171.828 253.271 172.328 253.098 172.795C252.924 173.275 252.611 173.735 252.158 174.175ZM261.423 171.895V161.855H263.043V166.055H268.563V161.855H270.183V171.895H268.563V167.355H263.043V171.895H261.423ZM277.276 172.075C276.383 172.075 275.603 171.868 274.936 171.455C274.27 171.028 273.75 170.428 273.376 169.655C273.016 168.882 272.836 167.955 272.836 166.875C272.836 165.782 273.016 164.848 273.376 164.075C273.75 163.302 274.27 162.708 274.936 162.295C275.603 161.882 276.383 161.675 277.276 161.675C278.183 161.675 278.963 161.908 279.616 162.375C280.283 162.828 280.723 163.448 280.936 164.235H280.696L280.916 161.855H282.476C282.436 162.242 282.396 162.635 282.356 163.035C282.33 163.422 282.316 163.802 282.316 164.175V171.895H280.696V169.535H280.916C280.703 170.322 280.263 170.942 279.596 171.395C278.93 171.848 278.156 172.075 277.276 172.075ZM277.596 170.755C278.556 170.755 279.316 170.428 279.876 169.775C280.436 169.108 280.716 168.142 280.716 166.875C280.716 165.595 280.436 164.628 279.876 163.975C279.316 163.308 278.556 162.975 277.596 162.975C276.65 162.975 275.89 163.308 275.316 163.975C274.756 164.628 274.476 165.595 274.476 166.875C274.476 168.142 274.756 169.108 275.316 169.775C275.89 170.428 276.65 170.755 277.596 170.755ZM289.883 172.075C288.897 172.075 288.037 171.862 287.303 171.435C286.583 171.008 286.023 170.402 285.623 169.615C285.237 168.828 285.043 167.895 285.043 166.815C285.043 165.722 285.243 164.795 285.643 164.035C286.043 163.262 286.603 162.675 287.323 162.275C288.057 161.875 288.91 161.675 289.883 161.675C290.523 161.675 291.143 161.788 291.743 162.015C292.357 162.242 292.863 162.562 293.263 162.975L292.683 164.135C292.283 163.748 291.843 163.462 291.363 163.275C290.897 163.088 290.437 162.995 289.983 162.995C288.943 162.995 288.137 163.322 287.563 163.975C286.99 164.628 286.703 165.582 286.703 166.835C286.703 168.075 286.99 169.035 287.563 169.715C288.137 170.395 288.943 170.735 289.983 170.735C290.423 170.735 290.877 170.648 291.343 170.475C291.823 170.302 292.27 170.015 292.683 169.615L293.263 170.755C292.85 171.182 292.337 171.508 291.723 171.735C291.11 171.962 290.497 172.075 289.883 172.075ZM295.681 171.895V161.855H297.301V166.075H299.201L302.521 161.855H304.301L300.501 166.715L300.061 166.215C300.448 166.255 300.781 166.348 301.061 166.495C301.341 166.642 301.608 166.862 301.861 167.155C302.128 167.448 302.414 167.855 302.721 168.375L304.801 171.895H303.061L301.221 168.775C300.994 168.388 300.774 168.095 300.561 167.895C300.361 167.695 300.128 167.555 299.861 167.475C299.608 167.395 299.288 167.355 298.901 167.355H297.301V171.895H295.681ZM310.643 172.075C309.683 172.075 308.843 171.868 308.123 171.455C307.416 171.028 306.869 170.428 306.483 169.655C306.096 168.868 305.903 167.942 305.903 166.875C305.903 165.795 306.096 164.868 306.483 164.095C306.869 163.322 307.416 162.728 308.123 162.315C308.843 161.888 309.683 161.675 310.643 161.675C311.616 161.675 312.456 161.888 313.163 162.315C313.883 162.728 314.436 163.322 314.823 164.095C315.223 164.868 315.423 165.795 315.423 166.875C315.423 167.942 315.223 168.868 314.823 169.655C314.436 170.428 313.883 171.028 313.163 171.455C312.456 171.868 311.616 172.075 310.643 172.075ZM310.643 170.755C311.603 170.755 312.363 170.428 312.923 169.775C313.483 169.108 313.763 168.142 313.763 166.875C313.763 165.595 313.476 164.628 312.903 163.975C312.343 163.308 311.589 162.975 310.643 162.975C309.696 162.975 308.943 163.308 308.383 163.975C307.823 164.628 307.543 165.595 307.543 166.875C307.543 168.142 307.823 169.108 308.383 169.775C308.943 170.428 309.696 170.755 310.643 170.755ZM317.329 172.115L316.729 170.855C317.195 170.642 317.582 170.382 317.889 170.075C318.209 169.755 318.462 169.355 318.649 168.875C318.835 168.382 318.969 167.775 319.049 167.055C319.129 166.322 319.169 165.442 319.169 164.415V161.855H326.409V171.895H324.809V163.135H320.669V164.475C320.669 166.048 320.555 167.342 320.329 168.355C320.115 169.368 319.762 170.175 319.269 170.775C318.789 171.362 318.142 171.808 317.329 172.115ZM329.607 171.895V161.855H331.227V165.455H334.247C335.54 165.455 336.514 165.735 337.167 166.295C337.834 166.842 338.167 167.622 338.167 168.635C338.167 169.315 338.014 169.902 337.707 170.395C337.414 170.875 336.974 171.248 336.387 171.515C335.814 171.768 335.1 171.895 334.247 171.895H329.607ZM331.227 170.735H334.107C334.92 170.735 335.54 170.568 335.967 170.235C336.394 169.888 336.607 169.362 336.607 168.655C336.607 167.948 336.394 167.435 335.967 167.115C335.554 166.782 334.934 166.615 334.107 166.615H331.227V170.735ZM340.583 171.895V161.855H342.203V166.075H344.103L347.423 161.855H349.203L345.403 166.715L344.963 166.215C345.35 166.255 345.683 166.348 345.963 166.495C346.243 166.642 346.51 166.862 346.763 167.155C347.03 167.448 347.317 167.855 347.623 168.375L349.703 171.895H347.963L346.123 168.775C345.897 168.388 345.677 168.095 345.463 167.895C345.263 167.695 345.03 167.555 344.763 167.475C344.51 167.395 344.19 167.355 343.803 167.355H342.203V171.895H340.583ZM355.545 172.075C354.585 172.075 353.745 171.868 353.025 171.455C352.318 171.028 351.772 170.428 351.385 169.655C350.998 168.868 350.805 167.942 350.805 166.875C350.805 165.795 350.998 164.868 351.385 164.095C351.772 163.322 352.318 162.728 353.025 162.315C353.745 161.888 354.585 161.675 355.545 161.675C356.518 161.675 357.358 161.888 358.065 162.315C358.785 162.728 359.338 163.322 359.725 164.095C360.125 164.868 360.325 165.795 360.325 166.875C360.325 167.942 360.125 168.868 359.725 169.655C359.338 170.428 358.785 171.028 358.065 171.455C357.358 171.868 356.518 172.075 355.545 172.075ZM355.545 170.755C356.505 170.755 357.265 170.428 357.825 169.775C358.385 169.108 358.665 168.142 358.665 166.875C358.665 165.595 358.378 164.628 357.805 163.975C357.245 163.308 356.492 162.975 355.545 162.975C354.598 162.975 353.845 163.308 353.285 163.975C352.725 164.628 352.445 165.595 352.445 166.875C352.445 168.142 352.725 169.108 353.285 169.775C353.845 170.428 354.598 170.755 355.545 170.755ZM371.041 172.075C370.321 172.075 369.628 171.955 368.961 171.715C368.294 171.475 367.774 171.148 367.401 170.735L367.961 169.655C368.361 170.042 368.821 170.335 369.341 170.535C369.861 170.722 370.401 170.815 370.961 170.815C372.014 170.815 372.841 170.488 373.441 169.835C374.041 169.182 374.354 168.248 374.381 167.035L374.601 167.375H369.261V166.175H374.621L374.381 166.515C374.354 165.808 374.214 165.188 373.961 164.655C373.708 164.108 373.328 163.682 372.821 163.375C372.328 163.068 371.708 162.915 370.961 162.915C370.441 162.915 369.908 163.008 369.361 163.195C368.828 163.382 368.361 163.682 367.961 164.095L367.401 162.975C367.814 162.575 368.354 162.262 369.021 162.035C369.688 161.795 370.368 161.675 371.061 161.675C372.061 161.675 372.921 161.882 373.641 162.295C374.374 162.695 374.941 163.282 375.341 164.055C375.741 164.828 375.941 165.755 375.941 166.835C375.941 167.928 375.734 168.868 375.321 169.655C374.921 170.428 374.354 171.028 373.621 171.455C372.888 171.868 372.028 172.075 371.041 172.075ZM380.712 171.895V163.155H377.072V161.855H385.992V163.155H382.332V171.895H380.712ZM391.834 172.075C390.874 172.075 390.034 171.868 389.314 171.455C388.608 171.028 388.061 170.428 387.674 169.655C387.288 168.868 387.094 167.942 387.094 166.875C387.094 165.795 387.288 164.868 387.674 164.095C388.061 163.322 388.608 162.728 389.314 162.315C390.034 161.888 390.874 161.675 391.834 161.675C392.808 161.675 393.648 161.888 394.354 162.315C395.074 162.728 395.628 163.322 396.014 164.095C396.414 164.868 396.614 165.795 396.614 166.875C396.614 167.942 396.414 168.868 396.014 169.655C395.628 170.428 395.074 171.028 394.354 171.455C393.648 171.868 392.808 172.075 391.834 172.075ZM391.834 170.755C392.794 170.755 393.554 170.428 394.114 169.775C394.674 169.108 394.954 168.142 394.954 166.875C394.954 165.595 394.668 164.628 394.094 163.975C393.534 163.308 392.781 162.975 391.834 162.975C390.888 162.975 390.134 163.308 389.574 163.975C389.014 164.628 388.734 165.595 388.734 166.875C388.734 168.142 389.014 169.108 389.574 169.775C390.134 170.428 390.888 170.755 391.834 170.755ZM62.1579 201.435L61.7779 200.095C62.4046 199.948 62.9246 199.775 63.3379 199.575C63.7646 199.388 64.1179 199.135 64.3979 198.815C64.6779 198.495 64.9179 198.095 65.1179 197.615L65.6379 196.435L65.5979 197.115L61.2179 186.855H62.9779L66.5979 195.675H66.0779L69.6579 186.855H71.3579L66.7179 197.735C66.4513 198.375 66.1579 198.908 65.8379 199.335C65.5179 199.775 65.1713 200.128 64.7979 200.395C64.4379 200.675 64.0379 200.895 63.5979 201.055C63.1579 201.215 62.6779 201.342 62.1579 201.435ZM72.1528 197.115L71.5528 195.855C72.0194 195.642 72.4061 195.382 72.7128 195.075C73.0328 194.755 73.2861 194.355 73.4728 193.875C73.6594 193.382 73.7928 192.775 73.8728 192.055C73.9528 191.322 73.9928 190.442 73.9928 189.415V186.855H81.2328V196.895H79.6328V188.135H75.4928V189.475C75.4928 191.048 75.3794 192.342 75.1528 193.355C74.9394 194.368 74.5861 195.175 74.0928 195.775C73.6128 196.362 72.9661 196.808 72.1528 197.115ZM88.9711 197.075C87.3977 197.075 86.1577 196.622 85.2511 195.715C84.3444 194.795 83.8911 193.522 83.8911 191.895C83.8911 190.842 84.0911 189.928 84.4911 189.155C84.8911 188.368 85.4511 187.762 86.1711 187.335C86.8911 186.895 87.7177 186.675 88.6511 186.675C89.5711 186.675 90.3444 186.868 90.9711 187.255C91.5977 187.642 92.0777 188.195 92.4111 188.915C92.7444 189.622 92.9111 190.462 92.9111 191.435V192.035H85.1311V191.015H91.8511L91.5111 191.275C91.5111 190.208 91.2711 189.375 90.7911 188.775C90.3111 188.175 89.5977 187.875 88.6511 187.875C87.6511 187.875 86.8711 188.228 86.3111 188.935C85.7511 189.628 85.4711 190.568 85.4711 191.755V191.935C85.4711 193.188 85.7777 194.142 86.3911 194.795C87.0177 195.435 87.8911 195.755 89.0111 195.755C89.6111 195.755 90.1711 195.668 90.6911 195.495C91.2244 195.308 91.7311 195.008 92.2111 194.595L92.7711 195.735C92.3311 196.162 91.7711 196.495 91.0911 196.735C90.4244 196.962 89.7177 197.075 88.9711 197.075ZM95.5053 196.895V186.855H97.1253V191.075H99.0253L102.345 186.855H104.125L100.325 191.715L99.8853 191.215C100.272 191.255 100.605 191.348 100.885 191.495C101.165 191.642 101.432 191.862 101.685 192.155C101.952 192.448 102.239 192.855 102.545 193.375L104.625 196.895H102.885L101.045 193.775C100.819 193.388 100.599 193.095 100.385 192.895C100.185 192.695 99.9519 192.555 99.6853 192.475C99.4319 192.395 99.1119 192.355 98.7253 192.355H97.1253V196.895H95.5053ZM110.167 197.075C109.274 197.075 108.494 196.868 107.827 196.455C107.16 196.028 106.64 195.428 106.267 194.655C105.907 193.882 105.727 192.955 105.727 191.875C105.727 190.782 105.907 189.848 106.267 189.075C106.64 188.302 107.16 187.708 107.827 187.295C108.494 186.882 109.274 186.675 110.167 186.675C111.074 186.675 111.854 186.908 112.507 187.375C113.174 187.828 113.614 188.448 113.827 189.235H113.587L113.807 186.855H115.367C115.327 187.242 115.287 187.635 115.247 188.035C115.22 188.422 115.207 188.802 115.207 189.175V196.895H113.587V194.535H113.807C113.594 195.322 113.154 195.942 112.487 196.395C111.82 196.848 111.047 197.075 110.167 197.075ZM110.487 195.755C111.447 195.755 112.207 195.428 112.767 194.775C113.327 194.108 113.607 193.142 113.607 191.875C113.607 190.595 113.327 189.628 112.767 188.975C112.207 188.308 111.447 187.975 110.487 187.975C109.54 187.975 108.78 188.308 108.207 188.975C107.647 189.628 107.367 190.595 107.367 191.875C107.367 193.142 107.647 194.108 108.207 194.775C108.78 195.428 109.54 195.755 110.487 195.755ZM120.614 196.895V188.155H116.974V186.855H125.894V188.155H122.234V196.895H120.614ZM132.077 197.075C130.503 197.075 129.263 196.622 128.357 195.715C127.45 194.795 126.997 193.522 126.997 191.895C126.997 190.842 127.197 189.928 127.597 189.155C127.997 188.368 128.557 187.762 129.277 187.335C129.997 186.895 130.823 186.675 131.757 186.675C132.677 186.675 133.45 186.868 134.077 187.255C134.703 187.642 135.183 188.195 135.517 188.915C135.85 189.622 136.017 190.462 136.017 191.435V192.035H128.237V191.015H134.957L134.617 191.275C134.617 190.208 134.377 189.375 133.897 188.775C133.417 188.175 132.703 187.875 131.757 187.875C130.757 187.875 129.977 188.228 129.417 188.935C128.857 189.628 128.577 190.568 128.577 191.755V191.935C128.577 193.188 128.883 194.142 129.497 194.795C130.123 195.435 130.997 195.755 132.117 195.755C132.717 195.755 133.277 195.668 133.797 195.495C134.33 195.308 134.837 195.008 135.317 194.595L135.877 195.735C135.437 196.162 134.877 196.495 134.197 196.735C133.53 196.962 132.823 197.075 132.077 197.075ZM138.071 197.115L137.471 195.855C137.937 195.642 138.324 195.382 138.631 195.075C138.951 194.755 139.204 194.355 139.391 193.875C139.577 193.382 139.711 192.775 139.791 192.055C139.871 191.322 139.911 190.442 139.911 189.415V186.855H147.151V196.895H145.551V188.135H141.411V189.475C141.411 191.048 141.297 192.342 141.071 193.355C140.857 194.368 140.504 195.175 140.011 195.775C139.531 196.362 138.884 196.808 138.071 197.115ZM150.349 196.895V186.855H151.969V190.455H154.989C156.282 190.455 157.256 190.735 157.909 191.295C158.576 191.842 158.909 192.622 158.909 193.635C158.909 194.315 158.756 194.902 158.449 195.395C158.156 195.875 157.716 196.248 157.129 196.515C156.556 196.768 155.842 196.895 154.989 196.895H150.349ZM151.969 195.735H154.849C155.662 195.735 156.282 195.568 156.709 195.235C157.136 194.888 157.349 194.362 157.349 193.655C157.349 192.948 157.136 192.435 156.709 192.115C156.296 191.782 155.676 191.615 154.849 191.615H151.969V195.735ZM161.326 196.895V186.855H162.946V191.055H168.466V186.855H170.086V196.895H168.466V192.355H162.946V196.895H161.326ZM177.479 197.075C176.519 197.075 175.679 196.868 174.959 196.455C174.252 196.028 173.705 195.428 173.319 194.655C172.932 193.868 172.739 192.942 172.739 191.875C172.739 190.795 172.932 189.868 173.319 189.095C173.705 188.322 174.252 187.728 174.959 187.315C175.679 186.888 176.519 186.675 177.479 186.675C178.452 186.675 179.292 186.888 179.999 187.315C180.719 187.728 181.272 188.322 181.659 189.095C182.059 189.868 182.259 190.795 182.259 191.875C182.259 192.942 182.059 193.868 181.659 194.655C181.272 195.428 180.719 196.028 179.999 196.455C179.292 196.868 178.452 197.075 177.479 197.075ZM177.479 195.755C178.439 195.755 179.199 195.428 179.759 194.775C180.319 194.108 180.599 193.142 180.599 191.875C180.599 190.595 180.312 189.628 179.739 188.975C179.179 188.308 178.425 187.975 177.479 187.975C176.532 187.975 175.779 188.308 175.219 188.975C174.659 189.628 174.379 190.595 174.379 191.875C174.379 193.142 174.659 194.108 175.219 194.775C175.779 195.428 176.532 195.755 177.479 195.755ZM190.115 196.895V186.855H191.595V195.395H191.055L197.455 186.855H198.815V196.895H197.355V188.335H197.895L191.495 196.895H190.115ZM207.224 196.895V186.855H215.924V196.895H214.304V188.135H208.844V196.895H207.224ZM219.199 201.215V189.175C219.199 188.802 219.179 188.422 219.139 188.035C219.112 187.635 219.079 187.242 219.039 186.855H220.599L220.819 189.235H220.579C220.792 188.448 221.225 187.828 221.879 187.375C222.532 186.908 223.312 186.675 224.219 186.675C225.125 186.675 225.905 186.882 226.559 187.295C227.225 187.708 227.745 188.302 228.119 189.075C228.492 189.848 228.679 190.782 228.679 191.875C228.679 192.955 228.492 193.882 228.119 194.655C227.759 195.428 227.245 196.028 226.579 196.455C225.912 196.868 225.125 197.075 224.219 197.075C223.325 197.075 222.552 196.848 221.899 196.395C221.245 195.942 220.812 195.322 220.599 194.535H220.819V201.215H219.199ZM223.899 195.755C224.859 195.755 225.619 195.428 226.179 194.775C226.752 194.108 227.039 193.142 227.039 191.875C227.039 190.595 226.752 189.628 226.179 188.975C225.619 188.308 224.859 187.975 223.899 187.975C222.952 187.975 222.192 188.308 221.619 188.975C221.059 189.628 220.779 190.595 220.779 191.875C220.779 193.142 221.059 194.108 221.619 194.775C222.192 195.428 222.952 195.755 223.899 195.755ZM231.326 196.895V186.855H232.806V195.395H232.266L238.666 186.855H240.026V196.895H238.566V188.335H239.106L232.706 196.895H231.326ZM247.52 197.075C246.533 197.075 245.673 196.862 244.94 196.435C244.22 196.008 243.66 195.402 243.26 194.615C242.873 193.828 242.68 192.895 242.68 191.815C242.68 190.722 242.88 189.795 243.28 189.035C243.68 188.262 244.24 187.675 244.96 187.275C245.693 186.875 246.547 186.675 247.52 186.675C248.16 186.675 248.78 186.788 249.38 187.015C249.993 187.242 250.5 187.562 250.9 187.975L250.32 189.135C249.92 188.748 249.48 188.462 249 188.275C248.533 188.088 248.073 187.995 247.62 187.995C246.58 187.995 245.773 188.322 245.2 188.975C244.627 189.628 244.34 190.582 244.34 191.835C244.34 193.075 244.627 194.035 245.2 194.715C245.773 195.395 246.58 195.735 247.62 195.735C248.06 195.735 248.513 195.648 248.98 195.475C249.46 195.302 249.907 195.015 250.32 194.615L250.9 195.755C250.487 196.182 249.973 196.508 249.36 196.735C248.747 196.962 248.133 197.075 247.52 197.075ZM257.518 197.075C256.558 197.075 255.718 196.868 254.998 196.455C254.291 196.028 253.744 195.428 253.358 194.655C252.971 193.868 252.778 192.942 252.778 191.875C252.778 190.795 252.971 189.868 253.358 189.095C253.744 188.322 254.291 187.728 254.998 187.315C255.718 186.888 256.558 186.675 257.518 186.675C258.491 186.675 259.331 186.888 260.038 187.315C260.758 187.728 261.311 188.322 261.698 189.095C262.098 189.868 262.298 190.795 262.298 191.875C262.298 192.942 262.098 193.868 261.698 194.655C261.311 195.428 260.758 196.028 260.038 196.455C259.331 196.868 258.491 197.075 257.518 197.075ZM257.518 195.755C258.478 195.755 259.238 195.428 259.798 194.775C260.358 194.108 260.638 193.142 260.638 191.875C260.638 190.595 260.351 189.628 259.778 188.975C259.218 188.308 258.464 187.975 257.518 187.975C256.571 187.975 255.818 188.308 255.258 188.975C254.698 189.628 254.418 190.595 254.418 191.875C254.418 193.142 254.698 194.108 255.258 194.775C255.818 195.428 256.571 195.755 257.518 195.755ZM269.479 197.075C267.906 197.075 266.666 196.622 265.759 195.715C264.852 194.795 264.399 193.522 264.399 191.895C264.399 190.842 264.599 189.928 264.999 189.155C265.399 188.368 265.959 187.762 266.679 187.335C267.399 186.895 268.226 186.675 269.159 186.675C270.079 186.675 270.852 186.868 271.479 187.255C272.106 187.642 272.586 188.195 272.919 188.915C273.252 189.622 273.419 190.462 273.419 191.435V192.035H265.639V191.015H272.359L272.019 191.275C272.019 190.208 271.779 189.375 271.299 188.775C270.819 188.175 270.106 187.875 269.159 187.875C268.159 187.875 267.379 188.228 266.819 188.935C266.259 189.628 265.979 190.568 265.979 191.755V191.935C265.979 193.188 266.286 194.142 266.899 194.795C267.526 195.435 268.399 195.755 269.519 195.755C270.119 195.755 270.679 195.668 271.199 195.495C271.732 195.308 272.239 195.008 272.719 194.595L273.279 195.735C272.839 196.162 272.279 196.495 271.599 196.735C270.932 196.962 270.226 197.075 269.479 197.075ZM274.953 199.495V195.615H276.013C276.493 194.935 276.84 194.122 277.053 193.175C277.266 192.228 277.373 191.108 277.373 189.815V186.855H284.433V195.615H286.013V199.495H284.613V196.895H276.333V199.495H274.953ZM277.573 195.635H282.893V188.115H278.793V190.075C278.793 191.128 278.686 192.148 278.473 193.135C278.273 194.108 277.973 194.942 277.573 195.635ZM288.181 196.895V186.855H289.661V195.395H289.121L295.521 186.855H296.881V196.895H295.421V188.335H295.961L289.561 196.895H288.181ZM300.076 196.895V186.855H301.696V191.055H307.216V186.855H308.836V196.895H307.216V192.355H301.696V196.895H300.076ZM312.029 196.895V186.855H313.509V195.395H312.969L319.369 186.855H320.729V196.895H319.269V188.335H319.809L313.409 196.895H312.029ZM323.383 197.115L322.783 195.855C323.25 195.642 323.637 195.382 323.943 195.075C324.263 194.755 324.517 194.355 324.703 193.875C324.89 193.382 325.023 192.775 325.103 192.055C325.183 191.322 325.223 190.442 325.223 189.415V186.855H332.463V196.895H330.863V188.135H326.723V189.475C326.723 191.048 326.61 192.342 326.383 193.355C326.17 194.368 325.817 195.175 325.323 195.775C324.843 196.362 324.197 196.808 323.383 197.115ZM335.662 196.895V186.855H337.142V195.395H336.602L343.002 186.855H344.362V196.895H342.902V188.335H343.442L337.042 196.895H335.662ZM351.856 197.075C350.869 197.075 350.009 196.862 349.276 196.435C348.556 196.008 347.996 195.402 347.596 194.615C347.209 193.828 347.016 192.895 347.016 191.815C347.016 190.722 347.216 189.795 347.616 189.035C348.016 188.262 348.576 187.675 349.296 187.275C350.029 186.875 350.883 186.675 351.856 186.675C352.496 186.675 353.116 186.788 353.716 187.015C354.329 187.242 354.836 187.562 355.236 187.975L354.656 189.135C354.256 188.748 353.816 188.462 353.336 188.275C352.869 188.088 352.409 187.995 351.956 187.995C350.916 187.995 350.109 188.322 349.536 188.975C348.963 189.628 348.676 190.582 348.676 191.835C348.676 193.075 348.963 194.035 349.536 194.715C350.109 195.395 350.916 195.735 351.956 195.735C352.396 195.735 352.849 195.648 353.316 195.475C353.796 195.302 354.243 195.015 354.656 194.615L355.236 195.755C354.823 196.182 354.309 196.508 353.696 196.735C353.083 196.962 352.469 197.075 351.856 197.075ZM357.654 196.895V186.855H359.274V190.455H362.294C363.587 190.455 364.56 190.735 365.214 191.295C365.88 191.842 366.214 192.622 366.214 193.635C366.214 194.315 366.06 194.902 365.754 195.395C365.46 195.875 365.02 196.248 364.434 196.515C363.86 196.768 363.147 196.895 362.294 196.895H357.654ZM359.274 195.735H362.154C362.967 195.735 363.587 195.568 364.014 195.235C364.44 194.888 364.654 194.362 364.654 193.655C364.654 192.948 364.44 192.435 364.014 192.115C363.6 191.782 362.98 191.615 362.154 191.615H359.274V195.735ZM373.845 196.895V186.855H375.465V191.075H377.365L380.685 186.855H382.465L378.665 191.715L378.225 191.215C378.612 191.255 378.945 191.348 379.225 191.495C379.505 191.642 379.772 191.862 380.025 192.155C380.292 192.448 380.578 192.855 380.885 193.375L382.965 196.895H381.225L379.385 193.775C379.158 193.388 378.938 193.095 378.725 192.895C378.525 192.695 378.292 192.555 378.025 192.475C377.772 192.395 377.452 192.355 377.065 192.355H375.465V196.895H373.845ZM389.822 196.895V186.855H391.442V191.055H396.962V186.855H398.582V196.895H396.962V192.355H391.442V196.895H389.822ZM405.675 197.075C404.781 197.075 404.001 196.868 403.335 196.455C402.668 196.028 402.148 195.428 401.775 194.655C401.415 193.882 401.235 192.955 401.235 191.875C401.235 190.782 401.415 189.848 401.775 189.075C402.148 188.302 402.668 187.708 403.335 187.295C404.001 186.882 404.781 186.675 405.675 186.675C406.581 186.675 407.361 186.908 408.015 187.375C408.681 187.828 409.121 188.448 409.335 189.235H409.095L409.315 186.855H410.875C410.835 187.242 410.795 187.635 410.755 188.035C410.728 188.422 410.715 188.802 410.715 189.175V196.895H409.095V194.535H409.315C409.101 195.322 408.661 195.942 407.995 196.395C407.328 196.848 406.555 197.075 405.675 197.075ZM405.995 195.755C406.955 195.755 407.715 195.428 408.275 194.775C408.835 194.108 409.115 193.142 409.115 191.875C409.115 190.595 408.835 189.628 408.275 188.975C407.715 188.308 406.955 187.975 405.995 187.975C405.048 187.975 404.288 188.308 403.715 188.975C403.155 189.628 402.875 190.595 402.875 191.875C402.875 193.142 403.155 194.108 403.715 194.775C404.288 195.428 405.048 195.755 405.995 195.755ZM413.982 196.895V186.855H415.342L419.102 193.595L422.882 186.855H424.242V196.895H422.802V188.655H423.222L419.522 195.275H418.702L414.982 188.635H415.422V196.895H413.982ZM427.619 193.215L427.119 182.795H429.119L428.619 193.215H427.619ZM427.099 196.895V194.855H429.139V196.895H427.099Z" fill="#19213D"/>
</svg>
