<svg width="650" height="205" viewBox="0 0 650 205" fill="none" xmlns="http://www.w3.org/2000/svg">
<path d="M100.465 104H65.5665C63.7536 83.756 58.617 65.7781 50.1568 50.0663C44.7181 62.4544 41.9988 73.8354 41.9988 84.2092C41.9988 91.2594 43.3081 97.8563 45.9267 104H6.64729C5.94228 99.8706 5.58977 94.3312 5.58977 87.3818C5.58977 80.4323 6.54657 73.6843 8.46019 67.1377C15.8125 65.0227 22.8627 61.4473 29.6107 56.4114C36.3587 51.2749 41.1931 45.8362 44.1138 40.0954C41.8981 36.5703 39.0277 32.6927 35.5026 28.4626H85.5083C95.4793 49.9152 100.465 75.0944 100.465 104ZM125.102 103.547C116.138 92.0651 111.656 80.2813 111.656 68.1953C111.656 56.1093 116.692 45.8866 126.764 37.5271C136.835 29.1676 149.727 24.9879 165.439 24.9879C173.798 24.9879 182.107 26.2468 190.366 28.7647C197.618 37.93 201.243 47.7498 201.243 58.2243C201.243 71.4182 195.855 82.8999 185.078 92.6694C174.302 102.439 161.259 107.324 145.95 107.324C139.403 107.324 132.454 106.065 125.102 103.547ZM148.065 38.1314C144.54 44.1744 142.777 51.2749 142.777 59.4329C142.777 67.591 144.54 75.1447 148.065 82.0942C151.691 88.9429 156.626 93.878 162.87 96.8995C167.604 90.8565 169.971 83.8567 169.971 75.9001C169.971 67.9435 168.007 60.5408 164.079 53.6921C160.252 46.8434 154.914 41.6565 148.065 38.1314ZM308.537 28.4626L308.839 41.304C308.839 60.9437 306.926 81.8424 303.099 104H266.992C269.308 87.5832 270.466 71.2671 270.466 55.0518C270.466 49.4116 270.315 43.8219 270.013 38.2825H267.445C261.704 38.2825 256.92 38.5846 253.093 39.1889V44.0233C253.093 64.2673 251.381 84.2596 247.956 104H213.511C214.921 93.2233 215.626 81.4395 215.626 68.6485C215.626 55.8575 214.72 42.4622 212.907 28.4626H308.537ZM422.03 102.791V104H386.98C386.578 98.2592 385.722 92.3169 384.412 86.1732C378.168 92.5183 371.118 98.4606 363.262 104H328.061C327.356 99.8706 327.004 94.4319 327.004 87.6839C327.004 80.8352 328.011 73.9865 330.025 67.1377C337.277 65.0227 344.226 61.4473 350.874 56.4114C357.622 51.3756 362.506 45.9369 365.528 40.0954C362.808 35.8653 359.938 31.9877 356.917 28.4626H407.073C417.044 50.1167 422.03 74.8929 422.03 102.791ZM381.693 75.1447C379.074 66.1809 375.65 57.7208 371.42 49.7641C366.686 63.663 363.967 76.8065 363.262 89.1947C370.513 85.4682 376.657 80.7848 381.693 75.1447Z" fill="#19213D"/>
<path d="M628.94 102.791V104H593.891C593.488 98.2592 592.632 92.3169 591.323 86.1732C585.078 92.5183 578.028 98.4606 570.172 104H534.972C534.267 99.8706 533.914 94.4319 533.914 87.6839C533.914 80.8352 534.921 73.9865 536.936 67.1377C544.187 65.0227 551.137 61.4473 557.784 56.4114C564.532 51.3756 569.417 45.9369 572.438 40.0954C569.719 35.8653 566.849 31.9877 563.827 28.4626H613.984C623.955 50.1167 628.94 74.8929 628.94 102.791ZM588.603 75.1447C585.985 66.1809 582.56 57.7208 578.33 49.7641C573.597 63.663 570.877 76.8065 570.172 89.1947C577.424 85.4682 583.568 80.7848 588.603 75.1447Z" fill="#19213D"/>
<path d="M439.86 137.059C439.86 133.926 453.782 131.402 460.743 130.532C468.053 121.134 463.789 100.51 460.743 61.3502C439.86 48.8191 428.548 32.6331 425.502 26.1064H523.394C523.394 34.4605 496.419 53.0831 482.932 61.3502C476.667 132.36 480.322 117.044 482.932 130.532C491.286 130.532 500.335 134.883 503.816 137.059V187.966C496.419 194.058 479.8 205.98 472.49 204.936C465.181 203.891 447.691 193.188 439.86 187.966V137.059Z" fill="#19213D"/>
<path d="M451.608 130.531L447.692 131.836L472.491 155.332L494.68 131.836L490.764 130.531L472.491 150.111L451.608 130.531Z" fill="#19213D" stroke="#B8DFE8" stroke-width="2.60958"/>
<path d="M482.933 61.3491C475.624 54.0393 465.095 58.3034 460.744 61.3491V65.2647C469.098 56.9107 479.017 61.7839 482.933 65.2647V61.3491Z" fill="#19213D" stroke="#B9E0E9" stroke-width="2.60958"/>
</svg>
