<svg width="249" height="79" viewBox="0 0 249 79" fill="none" xmlns="http://www.w3.org/2000/svg">
<path d="M38.4985 40H25.1253C24.4306 32.2424 22.4623 25.3532 19.2203 19.3324C17.1362 24.0796 16.0941 28.4408 16.0941 32.4161C16.0941 35.1177 16.5958 37.6457 17.5993 40H2.54727C2.2771 38.4176 2.14202 36.2949 2.14202 33.6318C2.14202 30.9688 2.50867 28.3829 3.24198 25.8742C6.05941 25.0637 8.76106 23.6936 11.3469 21.7639C13.9328 19.7955 15.7853 17.7114 16.9046 15.5115C16.0555 14.1607 14.9556 12.6748 13.6047 11.0538H32.7671C36.588 19.2745 38.4985 28.9232 38.4985 40ZM47.9395 39.8263C44.5045 35.4265 42.787 30.9109 42.787 26.2795C42.787 21.6481 44.7168 17.7307 48.5763 14.5273C52.4358 11.3239 57.3759 9.72225 63.3968 9.72225C66.6001 9.72225 69.7842 10.2047 72.949 11.1696C75.7279 14.6817 77.1173 18.4447 77.1173 22.4586C77.1173 27.5145 75.0524 31.9144 70.9228 35.6581C66.7931 39.4018 61.7951 41.2736 55.9286 41.2736C53.42 41.2736 50.7569 40.7912 47.9395 39.8263ZM56.7391 14.7589C55.3883 17.0746 54.7129 19.7955 54.7129 22.9217C54.7129 26.0479 55.3883 28.9425 56.7391 31.6056C58.1285 34.2301 60.0197 36.1212 62.4126 37.2791C64.2266 34.9634 65.1335 32.281 65.1335 29.232C65.1335 26.183 64.3809 23.3463 62.8757 20.7218C61.4091 18.0974 59.3636 16.1097 56.7391 14.7589ZM118.233 11.0538L118.348 15.9746C118.348 23.5007 117.615 31.5091 116.149 40H102.312C103.2 33.709 103.644 27.4566 103.644 21.2428C103.644 19.0815 103.586 16.9395 103.47 14.8168H102.486C100.286 14.8168 98.4527 14.9326 96.9861 15.1641V17.0167C96.9861 24.7743 96.33 32.4354 95.0178 40H81.8183C82.3586 35.8703 82.6288 31.3547 82.6288 26.4532C82.6288 21.5516 82.2815 16.4185 81.5867 11.0538H118.233ZM161.723 39.5369V40H148.292C148.138 37.8001 147.81 35.523 147.308 33.1687C144.915 35.6002 142.214 37.8773 139.203 40H125.714C125.444 38.4176 125.309 36.3335 125.309 33.7476C125.309 31.1232 125.695 28.4987 126.467 25.8742C129.246 25.0637 131.909 23.6936 134.456 21.7639C137.042 19.8341 138.914 17.75 140.072 15.5115C139.03 13.8905 137.93 12.4046 136.772 11.0538H155.992C159.813 19.3517 161.723 28.8461 161.723 39.5369ZM146.266 28.9425C145.263 25.5076 143.95 22.2656 142.33 19.2166C140.516 24.5427 139.473 29.5794 139.203 34.3265C141.982 32.8985 144.336 31.1039 146.266 28.9425Z" fill="white"/>
<path d="M240.946 39.5369V40H227.515C227.36 37.8001 227.032 35.523 226.531 33.1687C224.138 35.6002 221.436 37.8773 218.426 40H204.937C204.667 38.4176 204.531 36.3335 204.531 33.7476C204.531 31.1232 204.917 28.4987 205.689 25.8742C208.468 25.0637 211.131 23.6936 213.678 21.7639C216.264 19.8341 218.136 17.75 219.294 15.5115C218.252 13.8905 217.152 12.4046 215.994 11.0538H235.214C239.035 19.3517 240.946 28.8461 240.946 39.5369ZM225.489 28.9425C224.485 25.5076 223.173 22.2656 221.552 19.2166C219.738 24.5427 218.696 29.5794 218.426 34.3265C221.204 32.8985 223.559 31.1039 225.489 28.9425Z" fill="white"/>
<path d="M168.5 52.5C168.5 51.3 173.833 50.3333 176.5 50C179.3 46.4 177.667 38.5 176.5 23.5C168.5 18.7 164.167 12.5 163 10H200.5C200.5 13.2 190.167 20.3333 185 23.5C182.6 50.7 184 44.8333 185 50C188.2 50 191.667 51.6667 193 52.5V72C190.167 74.3333 183.8 78.9 181 78.5C178.2 78.1 171.5 74 168.5 72V52.5Z" fill="white"/>
<path d="M173 50L171.5 50.5L181 59.5L189.5 50.5L188 50L181 57.5L173 50Z" fill="#19213D" stroke="#19213D"/>
<path d="M185 23.5001C182.2 20.7001 178.167 22.3335 176.5 23.5001V25C179.7 21.8 183.5 23.6667 185 25V23.5001Z" fill="#19213D" stroke="#19213D"/>
</svg>
