<svg width="358" height="270" viewBox="0 0 358 270" fill="none" xmlns="http://www.w3.org/2000/svg">
<path d="M109.529 33.8486C104.684 41.1799 107.952 44.2129 110.191 44.813C131.02 71.2186 179.617 124.988 187.059 134.176C194.5 143.361 224.475 179.859 237.461 198.02C248.559 219.871 273.727 263.56 285.621 263.511C297.516 263.462 310.997 244.392 316.251 234.863C311.515 227.901 298.127 211.129 282.456 199.739C266.786 188.349 230.454 151.946 214.247 135.169C200.875 121.248 171.553 88.5815 161.243 69.2791C148.356 45.151 135.486 32.7136 134.09 27.8451C132.974 23.9502 128.586 24.8721 126.532 25.8198C122.883 25.4413 114.374 26.5172 109.529 33.8486Z" fill="#3D1F17"/>
<path d="M168.426 59.3304C169.505 55.3047 154.484 35.2193 146.839 25.6799C138.204 37.7488 113.134 49.0095 97.0829 56.8439C84.2421 63.1114 70.4572 53.7546 65.1698 48.2928C59.5591 38.9989 46.7492 24.6597 40.3952 41.6545C32.4527 62.8979 32.2696 80.3776 38.8584 102.818C45.4471 125.258 65.6502 140.56 86.2791 149.233C102.782 156.172 126.921 154.88 136.928 153.366C140.429 152.057 144.193 145.065 131.238 127.571C115.045 105.703 134.319 94.2381 137.944 79.0291C141.57 63.8201 167.078 64.3625 168.426 59.3304Z" fill="#30281F"/>
</svg>
