<svg width="302" height="330" viewBox="0 0 302 330" fill="none" xmlns="http://www.w3.org/2000/svg">
<path d="M32.5026 54.8769L125.031 54.1434L125.39 63.7455C95.4722 65.3019 34.9107 67.5185 32.0078 63.9337C29.1048 60.3488 31.1281 56.4021 32.5026 54.8769Z" fill="#EED498"/>
<path d="M130.154 50.4076C126.731 53.5087 118.44 54.2601 114.721 54.2482L113.978 63.5065L125.938 64.5381C120.707 65.2018 104.757 75.4248 82.8067 111.007C60.8562 146.589 81.7165 183.611 94.8904 197.675C108.739 207.483 141.497 222.257 161.746 202.892C181.995 183.527 183.841 154.36 182.233 142.197C175.826 125.127 162.771 88.9564 161.801 80.8385C160.588 70.6911 134.431 46.5313 130.154 50.4076Z" fill="#DEC3A7"/>
<path d="M219.785 221.02L166.642 176.257L156.688 184.318C173.395 200.879 207.461 234.297 210.069 235.482C212.678 236.668 217.633 226.335 219.785 221.02Z" fill="#9A7B62"/>
<path d="M276.315 222.645C265.602 230.99 231.611 221.886 215.954 216.29L204.699 232.412C226.551 250.577 272.219 282.515 280.074 264.942C287.93 247.369 280.841 229.422 276.315 222.645Z" fill="#3B2D26"/>
<path d="M275.84 222.205C274.521 235.502 272.829 263.06 276.614 266.92C281.345 271.745 290.638 237.426 275.84 222.205Z" fill="#130D09"/>
</svg>
