<svg width="231" height="230" viewBox="0 0 231 230" fill="none" xmlns="http://www.w3.org/2000/svg">
<g filter="url(#filter0_d_446_1716)">
<path d="M148.179 54.479C141.755 55.5041 139.079 60.1381 139.146 63.8088C133.558 60.2304 128.941 59.3895 120.61 56.7748C113.377 54.5047 98.7948 54.997 92.0696 56.3331C81.0617 58.3527 57.2927 67.1942 50.2797 86.4039C41.5134 110.416 45.7625 141.554 58.9116 156.022C72.0607 170.489 97.2883 191.18 118.401 188.074C139.513 184.968 152.328 181.082 169.392 157.85C183.043 139.263 174.991 111.554 169.258 100.023C172.229 101.442 176.563 96.8414 178.359 94.3637C179.53 91.2844 180.012 84.0555 172.571 79.7735C165.13 75.4916 159.143 83.6692 157.079 88.2933C162.868 102.883 172.637 133.93 161.027 153.4C149.417 172.87 121.88 177.001 98.7606 170.961C75.6408 164.922 66.0049 141.217 60.317 132.132C54.6291 123.048 57.5402 80.7752 82.1992 70.2666C106.858 59.758 135.499 65.7055 139.279 71.1499C142.304 75.5054 146.138 77.1549 147.677 77.4352C160.285 82.3652 161.987 71.3831 161.262 65.2757C159.042 61.3351 153.319 53.6589 148.179 54.479Z" fill="#2D2A25"/>
<path d="M112.897 51.1319C110.359 49.3115 105.279 52.058 103.056 53.6588C101.899 54.4263 105.442 68.1525 107.556 69.6695C109.67 71.1865 116.935 70.0076 117.694 68.9543C118.453 67.9011 116.068 53.4074 112.897 51.1319Z" fill="#453821"/>
<path d="M66.9921 61.5404C63.9925 60.6676 60.1247 64.9482 58.5657 67.1976C57.7321 68.3065 65.6615 80.0744 68.1611 80.8018C70.6608 81.5292 77.1116 78.0002 77.4745 76.7543C77.8374 75.5083 70.7416 62.6315 66.9921 61.5404Z" fill="#453821"/>
</g>
<defs>
<filter id="filter0_d_446_1716" x="40.3431" y="50.531" width="144.028" height="148.53" filterUnits="userSpaceOnUse" color-interpolation-filters="sRGB">
<feFlood flood-opacity="0" result="BackgroundImageFix"/>
<feColorMatrix in="SourceAlpha" type="matrix" values="0 0 0 0 0 0 0 0 0 0 0 0 0 0 0 0 0 0 127 0" result="hardAlpha"/>
<feOffset dy="5.33704"/>
<feGaussianBlur stdDeviation="2.66852"/>
<feComposite in2="hardAlpha" operator="out"/>
<feColorMatrix type="matrix" values="0 0 0 0 0 0 0 0 0 0 0 0 0 0 0 0 0 0 0.25 0"/>
<feBlend mode="normal" in2="BackgroundImageFix" result="effect1_dropShadow_446_1716"/>
<feBlend mode="normal" in="SourceGraphic" in2="effect1_dropShadow_446_1716" result="shape"/>
</filter>
</defs>
</svg>
