<svg width="164" height="181" viewBox="0 0 164 181" fill="none" xmlns="http://www.w3.org/2000/svg">
<path d="M150.286 69.9406C143.621 86.0094 120.533 96.891 109.823 100.323C109.251 94.9154 109.606 84.6949 115.599 87.0759C123.09 90.0521 127.172 82.3153 138.882 70.0887C150.591 57.8621 141.743 51.1714 137.302 46.3993C132.862 41.6272 119.301 45.0964 104.413 47.7048C89.526 50.3131 84.6228 43.3516 87.4424 40.461C89.6981 38.1485 98.1528 37.0288 102.098 36.758C104.353 35.7043 111.005 32.9103 119.574 30.1646C128.142 27.4188 138.701 34.0872 142.91 37.7647C148.146 41.7946 156.952 53.8718 150.286 69.9406Z" fill="#C28E79"/>
<g filter="url(#filter0_d_493_25)">
<path d="M45.3174 81.2828C53.3302 75.9099 55.1644 59.3476 55.08 51.7382C79.1108 62.6223 72.977 63.3606 71.9778 72.1549C71.1785 79.1904 84.0391 85.024 90.5692 87.0614C112.217 76.945 118.682 90.2088 119.208 98.1052C112.047 98.491 98.3786 102.898 100.997 117.441C103.615 131.985 100.11 142.992 98.0309 146.678C93.9173 151.561 80.9556 161.653 62.0175 162.953C38.3449 164.578 13.8293 129.77 14.1023 114.838C14.3753 99.9063 35.3015 87.999 45.3174 81.2828Z" fill="#C28E79"/>
</g>
<path d="M51.7709 122.916C55.2723 122.168 56.856 119.923 57.2102 118.894C55.4341 116.985 57.2907 112.966 58.441 111.194C59.6579 108.837 63.5099 105.421 69.1831 110.616C76.2746 117.11 69.3096 122.03 65.1645 124.06C61.8484 125.683 62.8079 129.14 63.7022 130.665C59.3887 137.307 47.3941 123.851 51.7709 122.916Z" fill="black" stroke="black"/>
<defs>
<filter id="filter0_d_493_25" x="10.1001" y="44.7383" width="113.108" height="119.27" filterUnits="userSpaceOnUse" color-interpolation-filters="sRGB">
<feFlood flood-opacity="0" result="BackgroundImageFix"/>
<feColorMatrix in="SourceAlpha" type="matrix" values="0 0 0 0 0 0 0 0 0 0 0 0 0 0 0 0 0 0 127 0" result="hardAlpha"/>
<feOffset dy="-3"/>
<feGaussianBlur stdDeviation="2"/>
<feComposite in2="hardAlpha" operator="out"/>
<feColorMatrix type="matrix" values="0 0 0 0 0 0 0 0 0 0 0 0 0 0 0 0 0 0 0.25 0"/>
<feBlend mode="normal" in2="BackgroundImageFix" result="effect1_dropShadow_493_25"/>
<feBlend mode="normal" in="SourceGraphic" in2="effect1_dropShadow_493_25" result="shape"/>
</filter>
</defs>
</svg>
