<svg width="356" height="357" viewBox="0 0 356 357" fill="none" xmlns="http://www.w3.org/2000/svg">
<path d="M122.759 268.006C90.1677 253.887 31.6049 177.356 6.39733 140.856C76.234 77.1668 182.023 25.5969 226.188 7.7731C230.157 9.02328 244.462 27.7667 269.934 92.7392C301.775 173.955 290.33 263.781 251.723 287.397C213.116 311.013 163.498 285.654 122.759 268.006Z" fill="#8C6A4F"/>
<path d="M6.23903 140.582C74.955 109.697 241.549 16.0321 228.677 7.86478C215.805 -0.302511 15.2242 119.258 6.23903 140.582Z" fill="#382E26"/>
<path d="M14.6789 152.895C15.4617 150.673 18.3816 147.04 23.7988 150.287C29.216 153.534 32.5444 149.075 33.5315 146.44C34.8334 143.328 38.7814 137.744 44.1576 140.306C50.8777 143.51 57.4163 137.965 57.6456 136.062C57.875 134.159 62.9825 127.67 68.6038 129.737C74.225 131.804 80.127 132.824 81.5305 127.587C82.934 122.351 84.7209 117.778 90.7632 118.275C96.8055 118.771 101.201 123.316 105.836 117.542C110.472 111.768 106.675 102.893 115.719 104.755C124.764 106.617 124.394 109.043 131.368 105.018C138.341 100.993 132.936 93.9325 138.581 90.6742C144.226 87.4158 149.926 96.5195 153.616 92.1762C157.307 87.833 157.354 77.1822 162.246 75.6864C167.138 74.1906 172.249 79.2079 177.563 76.1412C182.876 73.0745 181.838 64.3779 186.155 61.8862C190.472 59.3945 195.162 65.9827 199.479 63.491C203.796 60.9993 202.758 52.3028 207.075 49.8111C211.392 47.3194 218.407 52.5659 219.403 51.9909C220.399 51.4158 216.5 40.8302 221.148 38.1468C225.797 35.4634 229.645 45.1935 231.956 40.7613C234.267 36.3291 231.097 29.3062 233.561 27.4409C236.026 25.5756 238.084 28.3717 239.412 27.605C240.475 26.9917 239.624 25.4169 239.066 24.7062" stroke="#382E26"/>
<path d="M245.613 36.8084C243.319 36.3808 238.755 37.088 238.854 43.3374C238.954 49.5869 233.479 50.2359 230.729 49.7793C227.414 49.3569 220.667 49.9811 220.199 55.8569C219.615 63.2017 211.617 66.0661 209.871 65.322C208.125 64.5778 200.026 65.7485 199.012 71.5895C197.998 77.4304 195.947 82.9943 190.759 81.6088C185.572 80.2233 180.764 79.4947 178.193 84.92C175.623 90.3453 177.342 96.3606 170.091 97.4799C162.84 98.5992 157.111 90.9571 154.223 99.6314C151.335 108.306 153.6 109.188 146.69 113.177C139.78 117.165 136.404 109.04 130.81 112.269C125.216 115.498 130.199 124.885 124.643 125.902C119.088 126.918 109.929 121.694 106.22 125.148C102.512 128.603 104.281 135.465 99.0161 138.504C93.7513 141.542 86.8062 136.354 82.5285 138.823C78.2509 141.292 81.5764 148.57 77.2988 151.039C73.0211 153.508 66.076 148.319 61.7983 150.788C57.5207 153.257 58.5429 161.864 57.5557 162.434C56.5686 163.004 49.4221 154.428 44.8154 157.087C40.2087 159.746 46.6467 167.855 41.6993 167.645C36.7518 167.434 32.2998 161.245 29.4777 162.436C26.6556 163.627 28.0338 166.773 26.7176 167.533C25.6646 168.14 24.7355 166.633 24.4026 165.803" stroke="#382E26"/>
</svg>
