<svg width="421" height="323" viewBox="0 0 421 323" fill="none" xmlns="http://www.w3.org/2000/svg">
<path d="M88.2655 95.9916C33.5916 90.223 12.9683 127.631 9.49093 147.055L349.92 313.819C359.711 297.89 362.902 271.905 351.697 252.808C324.983 207.278 308.026 202.108 287.55 173.268C267.074 144.427 286.608 119.238 280.625 116.19C274.642 113.141 233.484 83.803 228.516 78.7616C223.548 73.7202 177.205 69.3515 165.106 81.5941C153.006 93.8366 156.608 103.202 88.2655 95.9916Z" fill="#EED39E"/>
<path d="M203.193 79.0239L272.997 114.591" stroke="#7B7B7B" stroke-width="0.2"/>
<path d="M179.78 87.1755L275.512 135.953" stroke="#7B7B7B" stroke-width="0.2"/>
<path d="M158.36 96.343L282.014 159.348" stroke="#7B7B7B" stroke-width="0.2"/>
<path d="M128.963 101.445L299.154 188.162" stroke="#7B7B7B" stroke-width="0.2"/>
<path d="M84.9414 99.0964L328.26 223.074" stroke="#7B7B7B" stroke-width="0.2"/>
<path d="M60.8633 106.909L338.752 248.5" stroke="#7B7B7B" stroke-width="0.2"/>
<path d="M30.1367 111.334L343.925 271.217" stroke="#7B7B7B" stroke-width="0.2"/>
<path d="M25.3252 130.637L339.114 290.52" stroke="#7B7B7B" stroke-width="0.2"/>
<path d="M199.845 80.665L272.973 117.926" stroke="#7B7B7B" stroke-width="0.2"/>
<path d="M175.767 88.4778L275.487 139.288" stroke="#7B7B7B" stroke-width="0.2"/>
<path d="M153.018 96.9678L281.99 162.682" stroke="#7B7B7B" stroke-width="0.2"/>
<path d="M123.621 102.07L301.789 192.851" stroke="#7B7B7B" stroke-width="0.2"/>
<path d="M78.269 99.0435L332.225 228.44" stroke="#7B7B7B" stroke-width="0.2"/>
<path d="M52.8613 106.179L342.717 253.867" stroke="#7B7B7B" stroke-width="0.2"/>
<path d="M31.4419 115.346L350.549 277.939" stroke="#7B7B7B" stroke-width="0.2"/>
<path d="M17.3237 129.907L344.408 296.565" stroke="#7B7B7B" stroke-width="0.2"/>
<path d="M197.161 82.6445L274.279 121.938" stroke="#7B7B7B" stroke-width="0.2"/>
<path d="M171.753 89.7795L276.793 143.3" stroke="#7B7B7B" stroke-width="0.2"/>
<path d="M149.005 98.27L284.625 167.372" stroke="#7B7B7B" stroke-width="0.2"/>
<path d="M116.949 102.018L304.424 197.541" stroke="#7B7B7B" stroke-width="0.2"/>
<path d="M70.2671 98.3132L337.519 234.485" stroke="#7B7B7B" stroke-width="0.2"/>
<path d="M44.8594 105.448L348.011 259.911" stroke="#7B7B7B" stroke-width="0.2"/>
<path d="M22.1108 113.938L354.514 283.306" stroke="#7B7B7B" stroke-width="0.2"/>
<path d="M17.2993 133.241L349.702 302.609" stroke="#7B7B7B" stroke-width="0.2"/>
<path d="M185.823 81.8877L272.248 125.923" stroke="#7B7B7B" stroke-width="0.2"/>
<path d="M157.756 87.668L274.762 147.285" stroke="#7B7B7B" stroke-width="0.2"/>
<path d="M143.65 100.562L282.595 171.357" stroke="#7B7B7B" stroke-width="0.2"/>
<path d="M110.929 103.971L302.393 201.527" stroke="#7B7B7B" stroke-width="0.2"/>
<path d="M61.5884 98.9114L335.488 238.47" stroke="#7B7B7B" stroke-width="0.2"/>
<path d="M36.1807 106.046L345.98 263.897" stroke="#7B7B7B" stroke-width="0.2"/>
<path d="M24.0689 119.956L352.483 287.292" stroke="#7B7B7B" stroke-width="0.2"/>
<path d="M19.2578 139.259L347.672 306.595" stroke="#7B7B7B" stroke-width="0.2"/>
<path d="M181.133 84.5186L272.876 131.264" stroke="#7B7B7B" stroke-width="0.2"/>
<path d="M154.396 90.9761L276.72 153.303" stroke="#7B7B7B" stroke-width="0.2"/>
<path d="M136.965 102.176L285.882 178.053" stroke="#7B7B7B" stroke-width="0.2"/>
<path d="M102.25 104.569L308.34 209.577" stroke="#7B7B7B" stroke-width="0.2"/>
<path d="M50.2505 98.1545L344.095 247.876" stroke="#7B7B7B" stroke-width="0.2"/>
<path d="M31.4902 108.677L357.245 274.657" stroke="#7B7B7B" stroke-width="0.2"/>
<path d="M18.0493 121.909L353.111 292.632" stroke="#7B7B7B" stroke-width="0.2"/>
<path d="M13.2378 141.212L348.3 311.935" stroke="#7B7B7B" stroke-width="0.2"/>
<path d="M253.399 105.424C260.642 100.413 249.801 95.503 243.475 93.6743L116.194 116.676L21.9962 132.27C23.1325 128.944 27.3535 120.441 35.1476 113.033C42.9417 105.625 59.3468 103.887 66.5751 103.945C76.3619 103.911 99.6657 104.74 114.586 108.327C129.507 111.913 144.189 105.56 149.664 101.935C157.489 96.4392 176.409 85.2734 189.493 84.5767C202.576 83.88 204.775 78.1395 204.239 75.3563C198.043 71.0833 180.681 66.6996 160.809 83.3491C135.969 104.161 126.336 98.4156 123.664 98.7279C120.993 99.0402 70.6849 89.3045 44.5879 99.4354C23.7104 107.54 6.52411 134.148 0.540676 146.439L7.85354 150.165C86.6841 137.34 246.156 110.436 253.399 105.424Z" fill="#3D100B"/>
<path d="M284.669 117.98C285.23 114.25 277.151 111.918 273.041 111.219C270.732 138.212 271.174 193.771 291.413 200.067C316.712 207.938 345.274 271.857 348.864 282.889C351.735 291.716 345.04 304.09 341.333 309.174L350.64 313.916C352.224 310.261 356.742 300.626 362.148 291.331C367.553 282.037 358.631 254.955 353.494 242.576C345.689 229.954 324.566 201.397 302.509 188.15C274.938 171.592 283.968 122.643 284.669 117.98Z" fill="#3D100B"/>
<ellipse cx="209.2" cy="170.776" rx="17.9071" ry="17.8924" transform="rotate(27 209.2 170.776)" fill="#3D100B"/>
</svg>
