<svg width="264" height="263" viewBox="0 0 264 263" fill="none" xmlns="http://www.w3.org/2000/svg">
<g filter="url(#filter0_d_446_1710)">
<rect x="68.7935" y="111.875" width="89.1638" height="89.1638" rx="1.33426" transform="rotate(-30 68.7935 111.875)" fill="#2E2618"/>
<path d="M96.0713 159.681C77.0955 140.88 88.1647 110.544 96.0713 97.7253C113.322 80.6341 143.511 78.4978 162.918 97.7253C182.325 116.953 171.543 151.135 162.918 159.681C154.292 168.226 119.791 183.181 96.0713 159.681Z" fill="#423623"/>
<path fill-rule="evenodd" clip-rule="evenodd" d="M131.793 252.093C201.381 252.093 257.793 195.681 257.793 126.093C257.793 56.5051 201.381 0.0930176 131.793 0.0930176C62.2056 0.0930176 5.79346 56.5051 5.79346 126.093C5.79346 195.681 62.2056 252.093 131.793 252.093ZM83.4941 52.5937C91.8941 61.6937 108.274 83.2537 106.594 96.6937L119.194 86.1937C114.994 71.4937 109.114 41.2537 119.194 37.8937C131.794 33.6937 186.394 46.2937 190.594 69.3937C184.994 75.6934 170.854 89.1329 159.094 92.4932L169.594 115.593C180.094 108.593 203.194 96.2732 211.594 102.993C222.094 111.393 224.194 170.193 180.094 193.293C171.694 189.793 154.474 179.013 152.794 163.893L138.094 170.193C142.994 179.293 151.114 200.013 144.394 210.093C135.994 222.693 85.5941 214.293 72.9941 189.093C77.8941 179.993 90.2141 161.373 100.294 159.693L91.8941 140.793C80.6941 149.193 57.0341 164.733 51.9941 159.693C45.6941 153.393 22.5941 67.7884 83.4941 52.5937Z" fill="#443D31"/>
</g>
<defs>
<filter id="filter0_d_446_1710" x="0.456418" y="0.0930176" width="262.674" height="262.674" filterUnits="userSpaceOnUse" color-interpolation-filters="sRGB">
<feFlood flood-opacity="0" result="BackgroundImageFix"/>
<feColorMatrix in="SourceAlpha" type="matrix" values="0 0 0 0 0 0 0 0 0 0 0 0 0 0 0 0 0 0 127 0" result="hardAlpha"/>
<feOffset dy="5.33704"/>
<feGaussianBlur stdDeviation="2.66852"/>
<feComposite in2="hardAlpha" operator="out"/>
<feColorMatrix type="matrix" values="0 0 0 0 0 0 0 0 0 0 0 0 0 0 0 0 0 0 0.25 0"/>
<feBlend mode="normal" in2="BackgroundImageFix" result="effect1_dropShadow_446_1710"/>
<feBlend mode="normal" in="SourceGraphic" in2="effect1_dropShadow_446_1710" result="shape"/>
</filter>
</defs>
</svg>
